<?xml version="1.0" standalone="no"?>
<!DOCTYPE svg PUBLIC "-//W3C//DTD SVG 1.1//EN" "http://www.w3.org/Graphics/SVG/1.1/DTD/svg11.dtd" >
<svg xmlns="http://www.w3.org/2000/svg">
<metadata>
This is a custom SVG webfont generated by Font Squirrel.
Copyright   : Copyright c 20102011 by Titus Nemeth Published by Rosetta All rights reserved
Designer    : Titus Nemeth
Foundry     : Titus Nemeth
Foundry URL : httpwwwrosettatypecom
</metadata>
<defs>
<font id="BBCNassimRegular" horiz-adv-x="942" >
<font-face units-per-em="2048" ascent="1331" descent="-717" />
<missing-glyph horiz-adv-x="389" />
<glyph unicode=" "  horiz-adv-x="389" />
<glyph unicode="&#x09;" horiz-adv-x="389" />
<glyph unicode="&#xa0;" horiz-adv-x="389" />
<glyph unicode="!" horiz-adv-x="464" d="M150 1128l206 33l-59 -764q-4 -43 -14.5 -60.5t-32.5 -17.5h-17zM158 90q0 104 104 105q102 0 103 -105q0 -104 -103 -104q-55 0 -79.5 26.5t-24.5 77.5z" />
<glyph unicode="&#x22;" horiz-adv-x="585" d="M80 1169q20 18 39.5 27.5t48.5 9.5t49.5 -9t38.5 -28l-61 -362h-54zM330 1169q20 18 39.5 27.5t48.5 9.5t49 -9t39 -28l-62 -362h-53z" />
<glyph unicode="#" horiz-adv-x="999" d="M113 258l24 102h160l47 199h-151l24 103h152l65 266h86l-65 -266h192l66 266h86l-66 -266h154l-25 -103h-153l-50 -199h150l-27 -102h-147l-72 -287h-86l72 287h-193l-69 -287h-86l69 287h-157zM381 360h192l50 199h-193z" />
<glyph unicode="$" d="M139 82l60 186h80l14 -118q37 -33 95 -53.5t120 -20.5q78 0 119 38t41 103q0 49 -35 82t-86 58.5t-112.5 51t-113 59.5t-86 83t-34.5 123q0 96 71.5 166.5t194.5 87.5v147h119v-143q57 -4 109.5 -19.5t107.5 -40.5l-47 -161h-76l-27 94q-35 18 -71.5 27.5t-83.5 9.5 q-66 0 -116 -35t-50 -96q0 -49 34.5 -81t86 -58.5t113 -52t112.5 -60.5t86 -84t35 -123q0 -98 -63.5 -168t-174.5 -88v-146h-119v142q-156 10 -303 90z" />
<glyph unicode="%" horiz-adv-x="1380" d="M133 686q0 139 65.5 197.5t168.5 58.5q51 0 94 -13.5t73.5 -44t48 -79.5t17.5 -119q0 -139 -66.5 -198.5t-166.5 -59.5q-104 0 -169 59.5t-65 198.5zM266 686q0 -201 101 -201q100 0 100 201q0 104 -23.5 151.5t-76.5 47.5t-77 -47.5t-24 -151.5zM268 20l781 953l73 -62 l-780 -952zM780 244q0 139 65.5 198.5t168.5 59.5q51 0 94 -14.5t73.5 -45t48 -80t17.5 -118.5q0 -70 -17.5 -119t-48 -80t-73.5 -45t-94 -14q-102 0 -168 59.5t-66 198.5zM913 244q0 -201 101 -201q102 0 102 201q0 104 -24.5 151t-77.5 47t-77 -47t-24 -151z" />
<glyph unicode="&#x26;" horiz-adv-x="1112" d="M158 236q0 92 54 176t177 145q-63 86 -92 147.5t-29 120.5q0 49 20.5 96.5t57.5 85t90 61.5t119 24q57 0 104.5 -17.5t81 -48.5t51 -71t17.5 -83q0 -88 -68.5 -166.5t-189.5 -140.5l213 -301q23 53 32 130t5 157l117 61l14 -12q-4 -53 -15.5 -107.5t-29 -104.5t-39 -95 t-45.5 -78q57 -63 122.5 -96t174.5 -43l-19 -66q-23 -6 -58.5 -15t-78.5 -9q-131 0 -227 123q-59 -59 -132 -91t-159 -32q-61 0 -111.5 20.5t-85 54t-53 79t-18.5 96.5zM299 283q0 -88 50 -137.5t128 -49.5q59 0 108.5 18.5t88.5 47.5l-252 354q-123 -88 -123 -233zM397 866 q0 -27 5.5 -51t18.5 -54t36.5 -68t60.5 -87q74 53 114 112.5t40 125.5q0 72 -40 114.5t-100 42.5q-66 0 -100.5 -41t-34.5 -94z" />
<glyph unicode="'" horiz-adv-x="335" d="M80 1169q20 18 39.5 27.5t48.5 9.5t49.5 -9t38.5 -28l-61 -362h-54z" />
<glyph unicode="(" horiz-adv-x="489" d="M80 475q0 285 87 479.5t257 335.5l35 -57q-53 -57 -93 -129t-68 -164t-41 -208t-13 -257q0 -143 13 -254.5t41 -201t68 -158t93 -123.5l-35 -80q-84 72 -148.5 155t-107.5 182t-65.5 218t-22.5 262z" />
<glyph unicode=")" horiz-adv-x="489" d="M31 -262q53 55 93 123.5t67.5 158t41 201t13.5 254.5q0 141 -13.5 257t-41 208t-67.5 164t-93 129l35 57q168 -141 256 -335.5t88 -479.5q0 -143 -22.5 -262t-65.5 -218t-107.5 -182t-148.5 -155z" />
<glyph unicode="*" horiz-adv-x="804" d="M80 993q0 41 20.5 63.5t51.5 22.5t91 -35.5t144 -101.5l-61 285q41 31 80 30q35 0 53 -21.5t18 -55.5q0 -33 -16.5 -99.5t-44.5 -138.5l252 148q25 -16 41 -42t16 -51q0 -47 -51 -65.5t-176 -18.5h-37q-18 0 -35 2l215 -192q-10 -35 -34.5 -60.5t-53.5 -25.5 q-45 0 -81 65.5t-71 196.5l-116 -266q-45 0 -79 20.5t-34 57.5q0 72 207 207l-291 26q-8 22 -8 49z" />
<glyph unicode="+" d="M127 397v111h287v301h116v-301h287v-111h-287v-301h-116v301h-287z" />
<glyph unicode="," horiz-adv-x="522" d="M104 57l101 166q76 -27 120 -79t44 -113q0 -76 -43 -152t-154 -160l-43 43q61 68 81.5 117t25.5 82z" />
<glyph unicode="-" horiz-adv-x="645" d="M74 360v41q0 49 38 71t91 22h377v-45q0 -49 -37 -69t-99 -20h-370z" />
<glyph unicode="." horiz-adv-x="571" d="M174 100q0 113 113 113q53 0 81.5 -29.5t28.5 -83.5q0 -53 -27.5 -81.5t-82.5 -28.5q-113 -1 -113 110z" />
<glyph unicode="/" horiz-adv-x="595" d="M0 -141l487 1388l109 -43l-490 -1384z" />
<glyph unicode="0" horiz-adv-x="999" d="M100 465q0 113 30 201t82 149.5t126 94t162 32.5t161.5 -32.5t126 -94t82 -149.5t29.5 -201t-29.5 -202t-82 -150.5t-126 -94t-161.5 -32.5t-162 32.5t-126 94t-82 150.5t-30 202zM264 465q0 -203 65.5 -296t170.5 -93q104 0 169.5 93t65.5 296t-65.5 295t-169.5 92 t-170 -92t-66 -295z" />
<glyph unicode="1" horiz-adv-x="720" d="M59 725l390 225l51 -28v-832l170 -29l-11 -61h-497l14 61q102 14 136 39t34 84v592l-2 2l-238 -137z" />
<glyph unicode="2" horiz-adv-x="847" d="M70 0l10 90l229 229q76 76 124 129.5t75 93.5t37 71.5t10 66.5q0 61 -33 106t-86 66q-25 -6 -53.5 -21.5t-59 -39t-61.5 -51t-55 -58.5h-2l-115 111v2q147 147 346 147q57 0 109.5 -19.5t90.5 -54t60.5 -81t22.5 -101.5q0 -43 -10.5 -82t-36 -80t-70.5 -87t-113 -101 l-299 -244l3 -4l581 80l4 -8l-43 -160h-665z" />
<glyph unicode="3" horiz-adv-x="825" d="M72 803v2q66 66 150.5 101.5t183.5 35.5q55 0 106 -18.5t89 -50t60.5 -72.5t22.5 -86q0 -80 -76 -147.5t-239 -108.5v-4q188 -6 272 -68.5t84 -157.5q0 -70 -42 -134t-118 -117.5t-181 -92.5t-232 -55l-56 78v2q217 35 341 115.5t124 191.5q0 82 -82 132t-241 59l-5 4 l15 65q133 31 202.5 94.5t69.5 130.5q0 51 -32.5 95.5t-92.5 54.5q-106 -29 -219 -154h-2z" />
<glyph unicode="4" d="M80 154v4l502 792h6l106 -80v-673l187 12l2 -4l-41 -111h-148v-227l-141 -37l-6 2v262h-404zM186 168l2 -2l359 20v289q0 96 3 165t7 110l-2 2z" />
<glyph unicode="5" horiz-adv-x="804" d="M72 -90q217 35 343 134t126 235q0 221 -267 221q-33 0 -67.5 -5.5t-56.5 -9.5l-3 2v443h521l-50 -133h-354l-28 -236l2 -2q35 10 78.5 17.5t82.5 7.5q55 0 109.5 -16.5t97.5 -51.5t71 -89t28 -128q0 -90 -42 -168t-119 -139.5t-183.5 -103.5t-233.5 -58l-55 78v2z" />
<glyph unicode="6" horiz-adv-x="903" d="M113 428q0 147 44 265t122.5 204t187 137t240.5 62v-2l-25 -88q-180 -37 -281.5 -143.5t-124.5 -293.5h3q41 31 102 52.5t131 21.5q61 0 117.5 -21.5t100.5 -60.5t70.5 -93t26.5 -120q0 -78 -27.5 -144.5t-76.5 -114.5t-114.5 -75.5t-139.5 -27.5q-78 0 -142.5 30.5 t-112.5 88t-74.5 139.5t-26.5 184zM270 412q0 -162 58.5 -249t150.5 -87q76 0 132.5 57t56.5 178q0 111 -66.5 172.5t-159.5 61.5q-41 0 -86 -7.5t-80 -17.5q-4 -20 -5 -50.5t-1 -57.5z" />
<glyph unicode="7" horiz-adv-x="802" d="M41 924v6h721l-14 -113q-147 -158 -261 -394.5t-174 -555.5l-157 -37l-6 2q25 150 77 292t118.5 267t140 229.5t139.5 176.5v4h-525z" />
<glyph unicode="8" horiz-adv-x="890" d="M113 248q0 90 47 158.5t168 125.5v3q-98 57 -142.5 122.5t-44.5 151.5q0 55 24.5 107.5t67.5 92.5t103.5 63.5t134.5 23.5q59 0 110.5 -20.5t89.5 -54.5t59.5 -80t21.5 -95q0 -78 -42 -147.5t-157 -120.5v-3q129 -70 180 -142.5t51 -158.5q0 -63 -24.5 -116.5t-68.5 -91 t-106.5 -59t-135.5 -21.5q-78 0 -139.5 19.5t-105.5 55t-67.5 84t-23.5 103.5zM256 274q0 -92 61.5 -145t153.5 -53q86 0 134 45t48 110q0 37 -13 69t-44 62.5t-83 63.5t-132 72q-125 -81 -125 -224zM272 842q0 -57 48.5 -111.5t173.5 -120.5q59 47 86.5 99.5t27.5 117.5 q0 84 -49 131.5t-115 47.5q-74 0 -123 -47t-49 -117z" />
<glyph unicode="9" horiz-adv-x="897" d="M78 600q0 66 27.5 127t74.5 109.5t112.5 77t139.5 28.5t139.5 -30.5t112.5 -89t74.5 -145.5t27.5 -198q0 -281 -157.5 -441.5t-468.5 -207.5l-56 78v2q217 35 356.5 154.5t162.5 312.5h-2q-45 -41 -105.5 -65.5t-126.5 -24.5q-63 0 -119.5 19.5t-99.5 58t-67.5 97 t-24.5 138.5zM242 600q0 -119 56 -167t146 -48q55 0 98.5 10.5t80.5 30.5v66q0 170 -53.5 265t-137.5 95q-80 0 -135 -67.5t-55 -184.5z" />
<glyph unicode=":" horiz-adv-x="546" d="M174 665q0 113 113 113q53 0 81.5 -29.5t28.5 -83.5q0 -53 -27.5 -81.5t-82.5 -28.5q-113 -1 -113 110zM174 100q0 113 113 113q53 0 81.5 -29.5t28.5 -83.5q0 -53 -27.5 -81.5t-82.5 -28.5q-113 -1 -113 110z" />
<glyph unicode=";" horiz-adv-x="567" d="M143 57l101 166q76 -27 120 -79t44 -113q0 -76 -43 -152t-154 -160l-43 43q61 68 81.5 117t25.5 82zM174 665q0 113 113 113q53 0 81.5 -29.5t28.5 -83.5q0 -53 -27.5 -81.5t-82.5 -28.5q-113 -1 -113 110z" />
<glyph unicode="&#x3c;" d="M125 381v131l694 401v-133l-586 -334l586 -333v-133z" />
<glyph unicode="=" d="M127 272v111h690v-111h-690zM127 508v110h690v-110h-690z" />
<glyph unicode="&#x3e;" d="M123 -20v133l586 333l-586 334v133l694 -401v-131z" />
<glyph unicode="?" horiz-adv-x="761" d="M61 1049q92 72 171 101.5t171 29.5q66 0 121.5 -19.5t95 -53.5t62.5 -79t23 -98q0 -31 -5.5 -63.5t-23 -68.5t-50 -77t-87.5 -90q-49 -43 -80 -74t-49.5 -54.5t-24.5 -41t-6 -35.5q0 -29 11 -52.5t32 -47.5l-68 -21q-47 35 -74.5 74t-27.5 80q0 25 8 49t27.5 53 t51.5 62.5t79 78.5q43 39 70.5 71t45 59.5t24.5 54t7 55.5q0 35 -10 62.5t-25 46.5q-16 12 -33.5 18t-52.5 6q-25 0 -52 -6t-60 -21.5t-74 -44t-94 -71.5zM291 90q0 104 104 105q102 0 103 -105q0 -104 -103 -104q-55 0 -79.5 26.5t-24.5 77.5z" />
<glyph unicode="@" horiz-adv-x="1398" d="M104 291q0 127 50.5 255t142.5 231.5t223 169t293 65.5q102 0 191.5 -32t156 -92.5t104.5 -149.5t38 -203q0 -117 -30 -206t-78 -149.5t-107.5 -91.5t-120.5 -31q-88 0 -133.5 58.5t-36.5 175.5q-66 -106 -121 -153.5t-113 -47.5q-51 0 -90 48t-39 153q0 68 26.5 148.5 t69.5 149t99.5 115t115.5 46.5q49 0 102.5 -11.5t106.5 -29.5q-14 -55 -25 -114.5t-19.5 -115t-12.5 -105.5t-4 -87q0 -72 21.5 -102.5t64.5 -30.5q41 0 80 20.5t68.5 64.5t48 114.5t18.5 168.5q0 90 -28.5 164t-81 126t-127 81t-166.5 29q-115 0 -214.5 -49.5t-174 -134.5 t-117.5 -198.5t-43 -242.5q0 -100 30.5 -172t84 -118t128 -67.5t162.5 -21.5q84 0 144.5 11.5t103.5 31.5l27 -43q-59 -43 -134 -66.5t-180 -23.5q-236 0 -370 121t-134 342zM561 338q0 -72 15.5 -97.5t46.5 -25.5q35 0 83 54.5t80 160.5q16 47 23.5 93t11.5 95 q-27 12 -58.5 18.5t-51.5 6.5q-14 0 -22.5 -1t-14.5 -3q-23 -12 -43.5 -41t-35.5 -70t-24.5 -90t-9.5 -100z" />
<glyph unicode="A" horiz-adv-x="1134" d="M10 0l17 61q57 14 97 47t69 111l307 856l135 31l366 -1016l134 -29l-17 -61h-389l16 61l82 29l-84 240h-403l-92 -240l96 -29l-12 -61h-322zM367 420h344l-172 493z" />
<glyph unicode="B" horiz-adv-x="1050" d="M68 1020l12 59h432q104 0 177 -21.5t119 -57t67.5 -84t21.5 -101.5q0 -86 -52 -149.5t-157 -92.5v-6q133 -16 201.5 -86.5t68.5 -171.5q0 -72 -29.5 -129t-82.5 -97t-127 -61.5t-164 -21.5h-457l17 61q59 12 78.5 38t19.5 79v811zM377 90h129q147 0 211.5 46t64.5 161 q0 104 -77.5 164.5t-229.5 60.5h-98v-432zM377 604h92q135 0 195.5 48t60.5 149q0 188 -266 188h-82v-385z" />
<glyph unicode="C" horiz-adv-x="1050" d="M96 514q0 117 42 222.5t116 185t175 127t220 47.5q109 0 195 -18.5t151 -47.5l-51 -199h-67l-25 107q-39 23 -94.5 39t-126.5 16q-74 0 -137.5 -28.5t-111.5 -85t-74.5 -142.5t-26.5 -202q0 -111 26.5 -195t74.5 -142.5t114.5 -88t146.5 -29.5q61 0 115.5 13t95.5 46 l57 133h72l-20 -202q-78 -45 -160 -69t-197 -24q-113 0 -207 39t-161.5 110t-104.5 169t-37 219z" />
<glyph unicode="D" horiz-adv-x="1167" d="M68 1020l12 59h409q287 0 434.5 -133t147.5 -379q0 -133 -40 -237.5t-113.5 -178t-178 -112.5t-233.5 -39h-408l17 61q59 12 78.5 37t19.5 78v813zM377 90h67q219 0 331 96.5t112 329.5q0 246 -111.5 359.5t-341.5 113.5h-57v-899z" />
<glyph unicode="E" d="M68 1020l12 59h774l-57 -225h-64l-18 115l-338 20v-377h348l-23 -90h-325v-432l362 27l66 125h65l-39 -242h-733l17 61q59 12 78.5 38t19.5 81v809z" />
<glyph unicode="F" horiz-adv-x="876" d="M68 1020l12 59h754l-58 -225h-63l-19 115l-317 20v-377h348l-23 -90h-325v-432l184 -29l-10 -61h-453l17 61q59 12 78.5 38t19.5 81v809z" />
<glyph unicode="G" horiz-adv-x="1103" d="M96 514q0 117 42 222.5t116 185t175 127t220 47.5q109 0 195 -18.5t151 -47.5l-51 -199h-67l-29 109q-35 23 -90.5 38t-124.5 15q-74 0 -138.5 -28.5t-112.5 -85t-74.5 -142.5t-26.5 -202q0 -111 26.5 -195t74.5 -142.5t114.5 -88t146.5 -29.5q113 0 195 47v297l-205 25 l10 65h358v-438q-90 -49 -182 -74t-213 -25q-113 0 -207 39t-161.5 110t-104.5 169t-37 219z" />
<glyph unicode="H" horiz-adv-x="1316" d="M68 1020l12 59h405l-12 -59q-57 -14 -76.5 -40t-19.5 -79v-289h565v377l-143 31l10 59h405l-12 -59q-59 -14 -77.5 -40t-18.5 -79v-811l143 -29l-16 -61h-404l17 61q59 12 77.5 38t18.5 79v344h-565v-432l143 -29l-14 -61h-408l17 61q59 12 78.5 38t19.5 79v811z" />
<glyph unicode="I" horiz-adv-x="587" d="M68 1020l12 59h405l-12 -59q-57 -14 -76.5 -40t-19.5 -79v-811l143 -29l-14 -61h-408l17 61q59 12 78.5 38t19.5 79v811z" />
<glyph unicode="J" horiz-adv-x="487" d="M-25 -403q61 41 109.5 91t79.5 111q6 41 8 112t2 132v946l-143 31l10 59h410l-17 -59q-57 -14 -76.5 -39t-19.5 -78v-903q0 -104 -16.5 -178t-53.5 -127t-99.5 -92t-154.5 -74z" />
<glyph unicode="K" horiz-adv-x="1105" d="M68 1020l12 59h405l-12 -59q-57 -14 -76.5 -40t-19.5 -79v-811l143 -29l-14 -61h-408l17 61q59 12 78.5 38t19.5 79v811zM463 526l352 463l-125 31l12 59h379l-12 -59q-39 -4 -66.5 -10t-50 -20.5t-46 -38t-52.5 -62.5l-236 -309l259 -375q25 -37 47 -61.5t46.5 -40 t52.5 -23.5t62 -10l-14 -66q-18 -6 -51 -12t-70 -6q-35 0 -61.5 6t-54 25.5t-57 56.5t-70.5 96z" />
<glyph unicode="L" horiz-adv-x="897" d="M68 1020l12 59h409l-16 -59q-57 -14 -76.5 -40t-19.5 -79v-811l356 23l66 155h71l-39 -268h-733l17 61q59 12 78.5 38t19.5 81v809z" />
<glyph unicode="M" horiz-adv-x="1513" d="M61 0l17 61q27 6 44 15.5t27.5 25t16.5 41t10 66.5l80 780l-127 31l12 59h260l351 -841l364 841h254l-14 -59q-70 -10 -86 -38q-12 -20 -12 -63q0 -16 2 -36l67 -793l146 -29l-15 -61h-407l16 61q59 12 81 38q18 22 18 63q0 8 -1 16l-45 527q-4 51 -7 81.5t-5 59.5h-2 q-10 -29 -22.5 -62.5t-28.5 -70.5l-291 -678h-86l-293 686q-20 47 -32.5 75.5t-18.5 49.5h-2q0 -16 -2 -60.5t-6 -91.5l-50 -604l146 -29l-12 -61h-347z" />
<glyph unicode="N" horiz-adv-x="1239" d="M68 1020l12 59h229l572 -684q35 -41 51 -61.5t29 -36.5l2 2q-2 35 -2 65v89v536l-105 31l10 59h316l-17 -59q-59 -14 -78.5 -39t-19.5 -78v-903h-82l-596 721q-49 57 -72 90l-2 -2q2 -27 3 -54.5t1 -74.5v-590l134 -29l-11 -61h-344l17 61q59 12 78.5 38t19.5 79v811z " />
<glyph unicode="O" horiz-adv-x="1226" d="M96 498q0 125 42 234.5t116 190.5t173 127t214 46t206 -37t153.5 -106.5t96 -167t33.5 -218.5t-38.5 -228.5t-107.5 -187t-165 -127t-209 -47.5q-115 0 -209 36t-161.5 103.5t-105.5 164t-38 217.5zM281 535q0 -211 89 -333t261 -122q68 0 125 23.5t99 76.5t66.5 139.5 t24.5 210.5q0 211 -88 337t-260 126q-68 0 -125 -25.5t-100 -81t-67.5 -142t-24.5 -209.5z" />
<glyph unicode="P" horiz-adv-x="956" d="M68 1020l12 59h426q195 0 302 -82t107 -217q0 -92 -34.5 -160.5t-95 -114.5t-143.5 -68.5t-177 -22.5h-88v-324l164 -29l-11 -61h-432l17 61q59 12 78.5 37t19.5 78v813zM377 494h43q162 0 240.5 70.5t78.5 193.5q0 119 -73.5 180t-206.5 61h-82v-505z" />
<glyph unicode="Q" horiz-adv-x="1226" d="M96 498q0 125 42 234.5t116 190.5t173 127t214 46q113 0 204 -37t154.5 -106.5t97 -167t33.5 -218.5q0 -98 -24.5 -187t-70.5 -163t-112.5 -129t-148.5 -86q74 -59 130.5 -97t103.5 -60.5t88 -32t84 -9.5q59 0 100 7.5t82 21.5l22 -59q-61 -41 -123.5 -60.5t-134.5 -19.5 q-57 0 -109 12t-109.5 45t-125 87t-155.5 140q-109 0 -206 36t-169 103.5t-114 164t-42 217.5zM281 535q0 -211 89 -333t261 -122q68 0 125 23.5t99 76.5t66.5 139.5t24.5 210.5q0 104 -22.5 190.5t-66.5 148t-108.5 94t-150.5 32.5q-68 0 -125 -25.5t-100 -80.5t-67.5 -143 t-24.5 -211z" />
<glyph unicode="R" horiz-adv-x="1116" d="M68 1020l12 59h432q205 0 308.5 -82t103.5 -221q0 -88 -53.5 -164.5t-155.5 -117.5l188 -287q27 -41 46.5 -66.5t39 -41t41 -22.5t51.5 -9l-14 -66q-18 -6 -40.5 -12t-59.5 -6q-59 0 -108.5 35.5t-115.5 140.5l-186 295h-180v-365l143 -29l-10 -61h-412l17 61 q59 12 78.5 37t19.5 78v813zM377 535h135q111 0 173.5 55t62.5 178q0 119 -81 174t-223 55h-67v-462z" />
<glyph unicode="S" horiz-adv-x="903" d="M92 86l58 211h75l15 -129q47 -41 106.5 -65.5t134.5 -24.5q92 0 146.5 44t54.5 109q0 29 -11.5 56.5t-42 58.5t-82.5 65.5t-134 77.5q-76 41 -126 78t-79 74t-41 75t-12 79q0 55 25.5 109t71.5 96t110.5 69t142.5 27q80 0 151.5 -21.5t130.5 -54.5l-49 -180h-63l-19 112 q-66 43 -178 43q-82 0 -137 -43t-55 -100q0 -25 8 -47.5t34.5 -47t72.5 -55t124 -73.5q86 -49 142.5 -91t88 -82t44 -81t12.5 -88q0 -72 -27.5 -128.5t-76 -97.5t-112 -62.5t-134.5 -21.5q-98 0 -194.5 32t-174.5 77z" />
<glyph unicode="T" horiz-adv-x="1003" d="M20 1079h963l-49 -245h-68l-20 135l-262 30v-909l143 -29l-10 -61h-412l17 61q59 12 78.5 38t19.5 79v821l-262 -30l-21 -135h-67z" />
<glyph unicode="U" horiz-adv-x="1204" d="M51 1020l10 59h412l-16 -59q-57 -14 -77 -39t-20 -78v-485q0 -170 74 -247t219 -77q63 0 116.5 18.5t91.5 59.5t58.5 106.5t20.5 157.5v553l-131 31l10 59h342l-14 -59q-59 -14 -78.5 -40t-19.5 -79v-455q0 -242 -110 -355.5t-314 -113.5q-233 0 -330.5 108t-97.5 347 v557z" />
<glyph unicode="V" horiz-adv-x="1085" d="M10 1020l13 59h391l-13 -59l-94 -31l240 -665q16 -47 26.5 -77t18.5 -54h2q6 25 15 53t26 76l235 667l-112 31l10 59h317l-12 -59q-29 -6 -48 -15.5t-34.5 -26.5t-30 -47t-32.5 -79l-307 -852h-127l-367 989z" />
<glyph unicode="W" horiz-adv-x="1533" d="M10 1020l13 59h385l-13 -59l-96 -31l193 -665q10 -35 18 -69t12 -60h2q6 33 12.5 57t12.5 47l211 737h117l208 -694q18 -61 27.5 -93t13.5 -54h2q4 23 12.5 53.5t24.5 93.5l166 647l-102 31l12 59h293l-12 -59q-25 -6 -43.5 -13.5t-31.5 -24.5t-25.5 -48t-26.5 -82 l-228 -852h-135l-207 678q-25 82 -34 153h-3q-4 -35 -14 -72.5t-20 -78.5l-193 -680h-143l-295 989z" />
<glyph unicode="X" horiz-adv-x="1132" d="M20 0l15 61q31 6 55.5 15.5t45 26t41 41t44.5 59.5l244 352l-297 434l-125 31l12 59h449l-17 -59l-120 -31l237 -354l252 354l-123 31l12 59h338l-12 -59q-57 -10 -91 -32.5t-69 -72.5l-247 -348l323 -477l125 -29l-12 -61h-445l11 61l129 31l-271 391l-272 -395l149 -27 l-8 -61h-373z" />
<glyph unicode="Y" horiz-adv-x="997" d="M10 1020l13 59h360l-12 -59l-72 -31l252 -440l242 440l-119 31l12 59h311l-14 -59q-25 -6 -43 -14.5t-34.5 -23.5t-34 -41t-40.5 -64l-233 -428v-359l143 -29l-10 -61h-409l16 61q59 12 77.5 38t18.5 79v262l-317 549z" />
<glyph unicode="Z" horiz-adv-x="968" d="M61 66l619 923l-449 -20l-30 -109h-54l-43 219h744l31 -67l-613 -922l500 29l63 123h78l-39 -242h-786z" />
<glyph unicode="[" horiz-adv-x="452" d="M80 461q0 154 3 268.5t9 201.5t13.5 150.5t15.5 110.5q59 31 134 53.5t167 32.5v-78q-41 -4 -92 -19.5t-80 -31.5q-12 -80 -18.5 -244t-6.5 -444q0 -281 6.5 -444.5t18.5 -243.5q29 -16 80 -32.5t92 -23.5v-73q-92 10 -167 31.5t-134 54.5q-16 78 -28.5 252t-12.5 479z " />
<glyph unicode="\" horiz-adv-x="595" d="M0 1204l109 43l487 -1388l-107 -39z" />
<glyph unicode="]" horiz-adv-x="452" d="M31 -283q41 6 92 22.5t80 33.5q12 80 18 243.5t6 444.5t-6 444.5t-18 243.5q-29 16 -80 31.5t-92 19.5v78q92 -10 166.5 -32.5t134.5 -53.5q6 -47 13 -110.5t13.5 -150.5t10.5 -202t4 -268q0 -305 -13.5 -479.5t-27.5 -251.5q-59 -33 -134 -54.5t-167 -31.5v73z" />
<glyph unicode="^" horiz-adv-x="1099" d="M119 387l385 692h96l381 -692h-131l-303 586l-295 -586h-133z" />
<glyph unicode="_" horiz-adv-x="1024" d="M0 -72h1024v-102h-1024v102z" />
<glyph unicode="`" horiz-adv-x="716" d="M197 1176q0 33 23.5 58.5t60.5 35.5l219 -320l-41 -39l-135 103q-76 57 -101.5 94t-25.5 68z" />
<glyph unicode="a" horiz-adv-x="804" d="M61 209q0 41 17.5 82t46.5 63q47 37 139 68t244 51v31q0 98 -29.5 151.5t-83.5 75.5q-94 -29 -223 -143l-84 117q78 53 154.5 76.5t165.5 23.5q106 0 180 -73t74 -202v-424l112 -30v-27q-20 -27 -56 -46t-67 -19q-49 0 -82.5 26.5t-50.5 85.5q-47 -53 -107.5 -82.5 t-125.5 -29.5q-45 0 -85 14t-71 43t-49.5 71t-18.5 97zM215 229q0 -66 30.5 -102.5t96.5 -36.5q53 0 96 20.5t72 55.5q0 23 -1 57.5t-1 75.5v84q-41 0 -81 -3t-77 -9t-65.5 -13.5t-46.5 -15.5q-23 -45 -23 -113z" />
<glyph unicode="b" horiz-adv-x="929" d="M0 1067l14 61l277 33v-420q0 -20 -2 -41.5t-6 -33.5q63 76 132.5 109.5t141.5 33.5q63 0 117.5 -25.5t95.5 -73.5t64.5 -118t23.5 -156q0 -109 -32.5 -192.5t-90 -143t-135.5 -90t-168 -30.5q-35 0 -75 6t-78.5 16t-74.5 24.5t-67 32.5v979zM291 141q35 -33 88 -52 t106 -19q35 0 64 6t49 16q96 102 96 314q0 70 -16 126t-44 96t-61.5 60.5t-70.5 20.5q-47 0 -104.5 -33t-106.5 -96v-439z" />
<glyph unicode="c" horiz-adv-x="688" d="M66 348q0 98 28.5 182t79.5 145.5t122 95.5t153 34q127 0 213 -49l-39 -176h-70l-23 90q-43 33 -120 32q-33 0 -69 -7t-58 -17q-23 -41 -38.5 -118t-15.5 -171q0 -162 71 -234.5t200 -72.5q35 0 66.5 5t56.5 11l18 -67q-43 -23 -103.5 -37t-115.5 -14q-168 0 -262 91 t-94 277z" />
<glyph unicode="d" horiz-adv-x="956" d="M72 346q0 82 24.5 165t76.5 148.5t133 107.5t192 42q41 0 78.5 -11.5t68.5 -29.5q-2 10 -3 28.5t-1 30.5v211l-137 29l14 61l277 33v-1075l131 -25l-13 -61l-231 -25l-37 140q-55 -76 -118.5 -107t-147.5 -31q-61 0 -116.5 25t-98.5 73t-67.5 116.5t-24.5 154.5zM236 381 q0 -156 62 -228.5t148 -72.5q55 0 102.5 29.5t92.5 97.5v422q-41 41 -86 65.5t-104 24.5q-66 0 -121 -25q-45 -47 -69.5 -125.5t-24.5 -187.5z" />
<glyph unicode="e" horiz-adv-x="774" d="M66 348q0 98 27.5 183t77.5 146.5t120.5 96.5t157.5 35q125 0 195.5 -65.5t70.5 -188.5q0 -35 -10.5 -84t-24.5 -82h-451q4 -162 74 -235.5t211 -73.5q39 0 71.5 5t63.5 15l19 -63q-47 -27 -110.5 -42t-135.5 -15q-160 0 -258 95t-98 273zM229 455l324 22q4 18 6 38t2 42 q0 78 -38 123t-99 45q-63 0 -125 -31q-23 -37 -44.5 -100t-25.5 -139z" />
<glyph unicode="f" horiz-adv-x="573" d="M25 727l16 57h154q2 109 30.5 181.5t84 115.5t140.5 61.5t201 18.5h17l-45 -149q-37 10 -82 16t-82 6q-53 0 -86 -8q-12 -33 -18.5 -79t-6.5 -120v-43h207l-20 -98h-187v-596l144 -29l-13 -61h-389l16 61q47 10 68 29t21 60v536z" />
<glyph unicode="g" horiz-adv-x="833" d="M31 -186q0 45 43 82.5t108 48.5v-21q0 -88 52.5 -140t160.5 -52q100 0 168 42t68 107q0 53 -54.5 86t-164.5 33h-113q-94 0 -140 31.5t-63 89.5l129 184q-59 29 -98 86.5t-39 122.5q0 59 23.5 113.5t66.5 94.5t102.5 63.5t131.5 23.5q119 0 198 -55q29 63 57.5 89.5 t57.5 26.5t55.5 -27.5t42.5 -88.5l-170 -35q29 -35 46.5 -79t17.5 -91q0 -63 -24.5 -115.5t-67.5 -89.5t-100.5 -57.5t-123.5 -20.5q-31 0 -62.5 5t-53.5 12l-45 -150h211q160 0 240.5 -59.5t80.5 -141.5q0 -57 -27.5 -108t-80 -91t-129 -63.5t-175.5 -23.5 q-154 0 -241.5 51t-87.5 117zM242 543q0 -102 47 -151.5t125 -49.5q68 0 108.5 38t40.5 142q0 102 -45 156.5t-127 54.5q-66 0 -107.5 -46t-41.5 -144z" />
<glyph unicode="h" horiz-adv-x="987" d="M31 1067l12 61l279 33v-375q0 -72 -11 -122q102 80 167 109.5t122 29.5q100 0 159.5 -62.5t59.5 -185.5v-465l131 -29l-12 -61h-375l17 61q47 10 66.5 29t19.5 60v344q0 78 -27 124t-76 68q-59 -6 -114.5 -26.5t-126.5 -61.5v-508l131 -29l-13 -61h-374l16 61 q47 10 66.5 29t19.5 60v888z" />
<glyph unicode="i" horiz-adv-x="514" d="M51 709l15 59l276 35v-713l131 -29l-12 -61h-375l14 61q47 10 67.5 29t20.5 60v528zM162 1059q0 94 98 94q92 0 92 -94q0 -96 -92 -96q-53 0 -75.5 24.5t-22.5 71.5z" />
<glyph unicode="j" horiz-adv-x="471" d="M37 -299q43 39 81 82t58 78q2 27 3 45t2 33.5t1 33.5v47v658l-137 31l14 59l277 35v-756q0 -80 -12.5 -137t-41 -102.5t-78.5 -83t-124 -78.5zM158 1059q0 94 98 94q92 0 92 -94q0 -96 -92 -96q-53 0 -75.5 24.5t-22.5 71.5z" />
<glyph unicode="k" horiz-adv-x="937" d="M33 1067l12 61l277 33v-1071l133 -29l-13 -61h-376l16 61q47 10 66.5 29t19.5 60v888zM365 418l249 293l-102 14l12 59h369l-12 -59q-45 -2 -78 -10t-62.5 -24.5t-58.5 -43t-64 -65.5l-106 -125l205 -250q33 -41 57.5 -65.5t48 -39t48 -21.5t57.5 -9l-10 -52 q-55 -31 -121 -30q-23 0 -45.5 5t-46 19.5t-51 41t-60.5 69.5z" />
<glyph unicode="l" horiz-adv-x="483" d="M31 1067l12 61l276 33v-1071l134 -29l-13 -61h-377l17 61q47 10 66.5 29t19.5 60v888z" />
<glyph unicode="m" horiz-adv-x="1484" d="M51 709l15 59l229 35l37 -139q104 80 167.5 109.5t121.5 29.5q72 0 119.5 -37t76.5 -104q51 43 91 69.5t73 43t60.5 22.5t56.5 6q100 0 159.5 -62.5t59.5 -185.5v-465l131 -29l-12 -61h-375l16 61q47 10 66.5 29t19.5 60v344q0 152 -98 192q-53 -4 -108.5 -25.5 t-127.5 -62.5v-508l132 -29l-11 -61h-377l17 61q47 10 66.5 29t19.5 60v344q0 86 -23.5 129t-77.5 63q-53 -4 -107 -25.5t-126 -62.5v-508l131 -29l-12 -61h-375l14 61q47 10 67.5 29t20.5 60v528z" />
<glyph unicode="n" horiz-adv-x="1007" d="M51 709l15 59l229 35l37 -139q104 80 167.5 109.5t121.5 29.5q100 0 159.5 -62.5t59.5 -185.5v-465l131 -29l-13 -61h-374l16 61q47 10 66.5 29t19.5 60v344q0 78 -26.5 124t-75.5 68q-59 -6 -114.5 -26.5t-127.5 -61.5v-508l131 -29l-12 -61h-375l14 61q47 10 67.5 29 t20.5 60v528z" />
<glyph unicode="o" horiz-adv-x="897" d="M72 348q0 90 24.5 173t72.5 147.5t120.5 102.5t169.5 38q88 0 156.5 -27.5t114.5 -77t70.5 -118t24.5 -150.5q0 -96 -28.5 -179t-80.5 -144.5t-124 -97t-158 -35.5q-178 0 -270 100t-92 268zM236 393q0 -160 67.5 -241.5t161.5 -81.5q45 0 82 15t62.5 53t39 100.5 t13.5 154.5q0 78 -18.5 138.5t-51.5 102.5t-75 63.5t-87 21.5q-98 0 -146 -78t-48 -248z" />
<glyph unicode="p" horiz-adv-x="962" d="M33 713l12 59l229 31l41 -123q70 72 130.5 100.5t134.5 28.5q63 0 119.5 -24.5t99.5 -72.5t67.5 -118t24.5 -158q0 -98 -33 -181t-86 -143.5t-122.5 -95t-145.5 -34.5q-119 0 -193 47q4 -12 7.5 -42t3.5 -61v-178l131 -27l-11 -63h-376l16 63q47 10 66.5 29t19.5 60v872z M322 168q41 -49 88 -72.5t118 -23.5q55 0 105 18q41 45 67.5 121t26.5 195q0 70 -16.5 126t-43 96t-60.5 60.5t-68 20.5q-55 0 -104.5 -23.5t-112.5 -87.5v-430z" />
<glyph unicode="q" horiz-adv-x="927" d="M72 348q0 82 24.5 164t76.5 147.5t133 107.5t192 42t190 -64l41 64l66 -21v-1040l92 -27l-10 -63h-426l12 63q106 12 142 30t36 59v190q0 35 1 63.5t3 51.5q-55 -76 -118.5 -107t-145.5 -31q-61 0 -117.5 25t-99.5 73t-67.5 116.5t-24.5 156.5zM236 381q0 -78 16 -134.5 t45 -93t66.5 -55t80.5 -18.5q57 0 104.5 29.5t92.5 97.5v422q-74 90 -190 90q-66 0 -121 -25q-45 -47 -69.5 -125.5t-24.5 -187.5z" />
<glyph unicode="r" horiz-adv-x="653" d="M47 709l14 59l230 35l37 -139q63 72 123.5 105.5t101.5 33.5q31 0 53.5 -31t30.5 -96l-299 -68v-518l131 -29l-12 -61h-375l14 61q47 10 67.5 29t20.5 60v528z" />
<glyph unicode="s" horiz-adv-x="700" d="M57 63l45 177h74l12 -101q80 -70 187 -69q55 0 91 27.5t36 70.5q0 25 -9.5 45t-34 43t-65.5 47.5t-102 58.5q-92 51 -131 102.5t-39 117.5q0 43 20.5 84t57.5 72.5t89 51t115 19.5q70 0 126.5 -14.5t103.5 -36.5l-39 -164h-64l-20 86q-29 18 -62.5 28.5t-74.5 10.5 q-31 0 -59.5 -5t-53.5 -16q-6 -10 -13 -26.5t-7 -32.5q0 -20 6 -36.5t24.5 -35t54 -41t95.5 -55.5q119 -66 165 -124t46 -130q0 -106 -76 -171.5t-193 -65.5q-74 0 -152.5 22t-152.5 61z" />
<glyph unicode="t" horiz-adv-x="620" d="M10 727l17 57h153v201l154 27v-228h225l-27 -98h-198v-438q0 -94 20.5 -123t73.5 -29q31 0 61.5 7.5t65.5 23.5l25 -72q-59 -39 -113.5 -54t-110.5 -15q-37 0 -69.5 9t-56 31.5t-37 62.5t-13.5 101v496z" />
<glyph unicode="u" horiz-adv-x="960" d="M31 725l10 59h258v-465q0 -133 34 -183t105 -50q59 0 107.5 26.5t89.5 86.5v495l-131 31l12 59h272v-698l132 -25l-11 -61l-233 -16l-37 135q-55 -72 -118.5 -103.5t-149.5 -31.5q-117 0 -171.5 65.5t-54.5 212.5v432z" />
<glyph unicode="v" horiz-adv-x="849" d="M10 725l13 59h358l-12 -59l-103 -14l211 -545l193 545l-115 14l10 59h275l-11 -59q-35 -4 -56 -25.5t-38 -68.5l-229 -631h-135l-279 711z" />
<glyph unicode="w" horiz-adv-x="1249" d="M10 725l13 59h360l-12 -59l-105 -14l166 -545l182 600h107l197 -600l143 545l-119 14l12 59h285l-12 -59q-20 -2 -34.5 -8t-25 -20.5t-20.5 -39t-21 -63.5l-161 -594h-146l-178 547l-170 -547h-145l-228 711z" />
<glyph unicode="x" horiz-adv-x="901" d="M0 0l12 59q37 6 63.5 13.5t47 22t39 35t43.5 52.5l155 217l-231 308l-86 18l12 59h361l-10 -59l-82 -18l163 -222l170 226l-79 14l12 59h301l-12 -59q-37 -4 -62.5 -9t-47 -16.5t-41 -30t-42.5 -46.5l-145 -193l254 -350l92 -21l-13 -59h-370l12 59l92 21l-188 260 l-191 -260l107 -21l-10 -59h-326z" />
<glyph unicode="y" horiz-adv-x="860" d="M10 725l13 59h358l-12 -59l-103 -14l205 -531l193 531l-109 14l10 59h285l-10 -59q-43 -6 -65.5 -28.5t-45.5 -82.5l-207 -536q-37 -94 -76.5 -165t-84 -123t-93.5 -87t-104 -57l-117 116q113 33 202 99.5t130 152.5l-287 697z" />
<glyph unicode="z" horiz-adv-x="772" d="M41 57l469 645l-307 -12l-35 -106h-70l-24 200h624l9 -57l-471 -647l346 18l63 113h86l-37 -211h-633z" />
<glyph unicode="{" horiz-adv-x="454" d="M80 422v70q82 16 113.5 42.5t31.5 65.5t-15 83t-50 110t-52.5 108.5t-17.5 93.5q0 39 24.5 84t69.5 86t106.5 73t135.5 42l-35 -127q-53 -14 -108.5 -57t-83.5 -90q8 -37 26.5 -79t44.5 -102q29 -66 46.5 -113.5t17.5 -93.5q0 -119 -160 -161q78 -20 119 -61.5t41 -100.5 q0 -45 -17.5 -93t-46.5 -114q-29 -59 -46 -101t-25 -77q29 -49 84 -92t108 -58l35 -127q-74 10 -135.5 42t-106.5 73t-69.5 86t-24.5 84q0 51 17.5 95t52.5 110q35 63 50 107t15 83t-31.5 66t-113.5 43z" />
<glyph unicode="|" horiz-adv-x="819" d="M354 -100v1261h111v-1261h-111z" />
<glyph unicode="}" horiz-adv-x="454" d="M31 -367l32 127q53 14 108.5 57.5t84.5 92.5q-6 35 -24.5 77t-47.5 101q-29 66 -46 114t-17 93q0 59 41 100t119 62q-160 43 -160 161q0 45 17.5 93.5t45.5 113.5q27 59 46.5 101.5t25.5 79.5q-29 47 -84 90t-109 57l-32 127q74 -10 134 -42t105 -73t70 -86t25 -84 q0 -51 -16.5 -94t-51.5 -108q-35 -66 -51.5 -110t-16.5 -83t32 -65.5t114 -42.5v-70q-82 -16 -114 -43t-32 -66t16.5 -83t51.5 -107q35 -66 51.5 -110t16.5 -95q0 -39 -25 -84t-70 -86t-105 -73t-134 -42z" />
<glyph unicode="~" horiz-adv-x="999" d="M150 379q72 127 117.5 177t92.5 50q18 0 56.5 -16.5t93.5 -50.5q59 -37 90 -51.5t47 -14.5q20 0 36.5 6t35 21.5t41 41t51.5 64.5l39 -41q-72 -127 -119 -178t-90 -51q-20 0 -54 14.5t-87 46.5q-41 23 -65.5 37.5t-40 21.5t-25 10t-17.5 3q-18 0 -33.5 -5t-34 -18.5 t-41 -40t-55.5 -69.5z" />
<glyph unicode="&#xa1;" horiz-adv-x="464" d="M100 705q0 49 25 76.5t78 27.5q55 0 79.5 -26.5t24.5 -77.5q0 -106 -104 -107q-103 1 -103 107zM109 -369l61 764q4 45 13.5 61.5t31.5 16.5h16l84 -809z" />
<glyph unicode="&#xa2;" d="M174 416q0 84 21.5 157.5t60.5 132t92 98.5t119 56v160h119v-148q106 -6 184 -49l-39 -176h-69l-23 90q-43 33 -121 33q-33 0 -68.5 -7t-58.5 -18q-23 -41 -38 -117.5t-15 -170.5q0 -162 70.5 -233.5t199.5 -71.5q35 0 63.5 4t53.5 10l18 -68q-35 -20 -81 -31.5 t-93 -15.5v-155h-118v159q-133 20 -205 109.5t-72 251.5z" />
<glyph unicode="&#xa3;" d="M68 0l22 117q14 10 33.5 21.5t36.5 19.5q25 12 42 27.5t29.5 44t21.5 75.5t17 123h-135l23 90h118q18 223 112.5 320.5t232.5 97.5q59 0 110 -22.5t88 -65.5v-2l-92 -98h-2q-31 37 -70 57t-90 20q-29 0 -53.5 -4t-46.5 -12q-16 -35 -26.5 -99.5t-12.5 -191.5h289l-25 -90 h-272q-18 -98 -57 -157.5t-89 -100.5v-2q47 -2 95.5 -8t107.5 -23q61 -16 102 -23.5t87 -7.5q59 0 106 20.5t76 55.5h2l33 -73q-27 -57 -80 -94.5t-125 -37.5q-53 0 -102.5 11.5t-96.5 27.5q-49 16 -101 26.5t-102 10.5q-53 0 -101 -15t-93 -42z" />
<glyph unicode="&#xa4;" d="M84 160l149 96q-29 41 -46 90t-17 103q0 109 61 192l-147 94l92 117l119 -145q78 59 176 59q53 0 101.5 -18.5t86.5 -53.5l107 158l92 -117l-158 -82q35 -41 53.5 -93t18.5 -111t-18.5 -111.5t-53.5 -93.5l158 -84l-92 -115l-107 156q-39 -33 -87 -51.5t-101 -18.5 q-98 0 -178 62l-117 -148zM276 449q0 -45 15.5 -85t41 -71t61.5 -48.5t77 -17.5t77 17.5t61.5 48.5t41 70.5t15.5 85.5q0 45 -15.5 84.5t-41 69.5t-61.5 47.5t-77 17.5t-77 -17.5t-61.5 -47.5t-41 -69.5t-15.5 -84.5z" />
<glyph unicode="&#xa5;" d="M31 868l14 62h356l-12 -62l-86 -28l139 -222q23 -35 41.5 -70.5t28.5 -62.5h4q14 51 66 125l149 230l-106 28l12 62h278l-12 -62q-47 -8 -73.5 -29.5t-65.5 -78.5l-174 -271h248l-27 -90h-248v-92h268l-26 -90h-242v-127l119 -29l-14 -61h-375l16 61q59 12 80 38t21 79 v39h-275l27 90h248v92h-269l27 90h205l-230 351z" />
<glyph unicode="&#xa6;" horiz-adv-x="819" d="M354 -100v553h111v-553h-111zM354 610v551h111v-551h-111z" />
<glyph unicode="&#xa7;" horiz-adv-x="919" d="M150 518q0 113 79 209l50 12q-31 51 -31 115q0 47 20.5 90t55 76t81 52.5t99.5 19.5q72 0 127 -25t94 -66l-78 -114q-37 47 -90 74.5t-115 27.5q-53 0 -83.5 -28.5t-30.5 -61.5q0 -41 40 -82t140 -110q70 -47 120 -90.5t81.5 -85.5t46 -85t14.5 -90q0 -53 -19.5 -106 t-60.5 -100l-49 -15q31 -53 31 -115q0 -47 -20.5 -90t-55.5 -74.5t-81 -51t-99 -19.5q-70 0 -126.5 24.5t-94.5 65.5l77 115q37 -47 90.5 -76t114.5 -29q53 0 85 30t32 62q0 41 -41 82t-141 111q-139 94 -200.5 174t-61.5 174zM244 578q0 -31 10 -60t35.5 -59.5t68.5 -67.5 t109 -82q55 -41 95 -76.5t67 -72.5q49 74 49 139q0 31 -10.5 59.5t-36 59.5t-68.5 65.5t-108 81.5q-57 41 -97.5 77t-64.5 75q-27 -39 -38 -72.5t-11 -66.5z" />
<glyph unicode="&#xa8;" horiz-adv-x="716" d="M102 1001q0 90 88 91q88 0 89 -91q0 -41 -21.5 -65.5t-67.5 -24.5q-88 0 -88 90zM438 1001q0 90 90 91q86 0 86 -91q0 -41 -20.5 -65.5t-65.5 -24.5q-90 0 -90 90z" />
<glyph unicode="&#xa9;" horiz-adv-x="1490" d="M102 561q0 133 49.5 250t135.5 204t203.5 137t257.5 50q137 0 254.5 -50t203.5 -137t134.5 -204t48.5 -250t-48.5 -249.5t-134.5 -205t-203.5 -138.5t-254.5 -50q-139 0 -257 50t-204 138.5t-135.5 205t-49.5 249.5zM199 561q0 -113 43 -213t116.5 -176t174 -120 t215.5 -44t214 44t172.5 120t115.5 176.5t42 212.5q0 113 -42 212t-115.5 175t-173 120t-213.5 44q-115 0 -215.5 -44t-174 -120t-116.5 -175t-43 -212zM395 561q0 74 29 136.5t79 108.5t119.5 72.5t153.5 26.5q76 0 141.5 -17.5t108.5 -37.5l-33 -172h-75l-19 115 q-23 12 -58.5 24t-76.5 12q-98 0 -153.5 -75.5t-55.5 -186.5q0 -119 51 -188.5t162 -69.5q35 0 72 10.5t59 26.5l29 127h76v-182q-53 -29 -116 -45.5t-128 -16.5q-88 0 -156.5 25t-115 69t-70 105t-23.5 133z" />
<glyph unicode="&#xaa;" horiz-adv-x="595" d="M57 668q0 33 15.5 62.5t44.5 51.5q35 27 96 48.5t174 37.5q0 47 -5 77t-14.5 49.5t-24.5 29.5t-34 18q-37 -10 -87 -39.5t-83 -66.5l-63 84q45 37 102.5 58.5t126.5 21.5q78 0 135.5 -53.5t57.5 -161.5v-281l90 -24v-23q-18 -20 -47 -36.5t-54 -16.5q-31 0 -55 23.5 t-35 62.5q-43 -47 -84 -66.5t-82 -19.5q-76 0 -125 46t-49 118zM170 682q0 -47 26.5 -69.5t69.5 -22.5q72 0 123 53q-2 14 -2 29v53v63q-76 0 -128 -8t-75 -20q-14 -23 -14 -78z" />
<glyph unicode="&#xab;" horiz-adv-x="931" d="M489 342v109l295 290l4 -59l-129 -236l-98 -51l98 -51l129 -235l-4 -58zM143 342v109l295 290l4 -59l-129 -236l-98 -51l98 -51l129 -235l-4 -58z" />
<glyph unicode="&#xac;" horiz-adv-x="999" d="M141 424v115h695v-406h-115v291h-580z" />
<glyph unicode="&#xad;" horiz-adv-x="645" d="M74 360v41q0 49 38 71t91 22h377v-45q0 -49 -37 -69t-99 -20h-370z" />
<glyph unicode="&#xae;" horiz-adv-x="1056" d="M61 803q0 92 35 173t96.5 142.5t142.5 96t173 34.5t173 -34.5t142.5 -96t96 -142.5t34.5 -173t-34.5 -173t-96 -142.5t-142.5 -96.5t-173 -35t-173 35t-142.5 96.5t-96.5 142.5t-35 173zM129 803q0 -78 29.5 -147.5t81 -121t121 -81t147.5 -29.5t147.5 29.5t120.5 81 t81 121t30 147.5t-30 147.5t-81 120.5t-120.5 81t-147.5 30t-147.5 -30t-121 -81t-81 -120.5t-29.5 -147.5zM276 999l9 35h227q88 0 138 -34.5t50 -88.5q0 -49 -28.5 -76.5t-73.5 -41.5l66 -88q16 -23 27 -35.5t21.5 -18.5t20.5 -8t27 -4l-8 -37q-12 -4 -31 -9t-39 -5 q-33 0 -55.5 17.5t-55.5 66.5l-67 102h-60v-129l66 -12l-6 -35h-215l8 35q47 6 47 39v313zM444 817h29q57 0 93 20.5t36 63.5q0 41 -26.5 60.5t-88.5 19.5h-43v-164z" />
<glyph unicode="&#xaf;" horiz-adv-x="716" d="M88 954l8 39q8 41 32 55.5t83 14.5h407l-8 -43q-8 -39 -30.5 -52.5t-69.5 -13.5h-422z" />
<glyph unicode="&#xb0;" horiz-adv-x="649" d="M61 897q0 55 20.5 103.5t56.5 84t83 56t103 20.5q55 0 103 -20.5t84 -56t56.5 -84t20.5 -103.5t-20.5 -102t-56.5 -83t-84 -56.5t-103 -20.5t-102.5 20.5t-83.5 56.5t-56.5 83t-20.5 102zM162 897q0 -72 47 -121t115 -49t115.5 49t47.5 121t-48 122t-115 50 q-68 0 -115 -50t-47 -122z" />
<glyph unicode="&#xb1;" d="M127 0v111h690v-111h-690zM127 522v111h287v301h116v-301h287v-111h-287v-301h-116v301h-287z" />
<glyph unicode="&#xb2;" horiz-adv-x="608" d="M86 1081q51 57 110.5 93t139.5 36q43 0 83 -14t70.5 -40t49 -60.5t18.5 -73.5q0 -37 -10 -72t-35 -73.5t-69 -83.5t-111 -101l-119 -98l375 53l-19 -125h-477l6 62l148 137q96 90 141 154.5t45 128.5q0 49 -28.5 85.5t-71.5 53.5q-37 -12 -80 -52t-78 -87z" />
<glyph unicode="&#xb3;" horiz-adv-x="598" d="M102 571l27 68q41 -23 84 -36t98 -13q68 0 108 30.5t40 84.5q0 59 -63.5 97t-182.5 50l14 55q98 4 151.5 36t53.5 85q0 47 -29.5 76t-78.5 39q-33 -8 -78 -39t-76 -64l-68 82q55 47 112.5 67.5t117.5 20.5q43 0 83 -13t69.5 -35.5t47 -54.5t17.5 -69q0 -53 -45 -97 t-148 -60q96 -10 161 -52.5t65 -128.5q0 -82 -69 -135t-183 -53q-66 0 -122.5 15t-105.5 44z" />
<glyph unicode="&#xb4;" horiz-adv-x="716" d="M197 950l219 320q37 -10 60.5 -36t23.5 -58q0 -31 -25.5 -68t-101.5 -94l-135 -103z" />
<glyph unicode="&#xb5;" horiz-adv-x="966" d="M150 -53q0 29 3 58.5t7 57.5q12 74 20 151t8 183q0 100 -6 190.5t-14 162.5l154 34q4 -35 6 -65.5t2 -61.5q0 -104 -12.5 -190t-12.5 -174q0 -195 129 -195q47 0 100.5 39t94.5 127q10 35 15 85t5 110q0 31 -2 69.5t-5 78.5t-7 77t-8 66l141 34q4 -39 6 -80.5t2 -95.5 q0 -68 -6 -143.5t-14 -147.5q-6 -41 -6 -75q0 -70 26.5 -105t87.5 -35q23 0 47.5 5.5t49.5 15.5v-74q-41 -29 -85.5 -47t-89.5 -18q-59 0 -103 48t-48 142q-51 -100 -102.5 -145t-120.5 -45q-49 0 -87 20.5t-61 54.5q-2 -8 -4 -27.5t-2 -37.5q0 -92 25.5 -159.5t93.5 -135.5 l-160 -53q-67 143 -67 301z" />
<glyph unicode="&#xb6;" horiz-adv-x="1120" d="M150 856q0 66 26.5 121t76.5 96t120.5 64.5t161.5 23.5h98v-968q0 -86 -14.5 -153t-45 -119t-80 -96t-120.5 -83l-76 119q123 63 180.5 139t57.5 199v317q-186 27 -285.5 116t-99.5 224zM768 0v1161h272q-10 -68 -52 -91t-120 -28v-1042h-100z" />
<glyph unicode="&#xb7;" horiz-adv-x="256" d="M31 457q0 98 98 98q96 0 96 -98q0 -47 -23.5 -73t-72.5 -26q-53 0 -75.5 26t-22.5 73z" />
<glyph unicode="&#xb8;" horiz-adv-x="716" d="M229 -315q94 51 124 78.5t30 43.5t-20.5 33t-77.5 47l153 201l45 -33l-88 -116q72 -31 102.5 -57.5t30.5 -55.5q0 -18 -11 -36.5t-42 -40t-84 -48.5t-135 -61z" />
<glyph unicode="&#xb9;" horiz-adv-x="565" d="M57 1042l314 170l37 -20v-598l131 -23l-7 -49h-380l10 49q72 10 104.5 28.5t32.5 66.5v428l-209 -113z" />
<glyph unicode="&#xba;" horiz-adv-x="706" d="M86 772q0 63 18.5 123.5t55.5 107t91 74t126 27.5q123 0 194.5 -70.5t71.5 -197.5q0 -68 -21.5 -128.5t-59.5 -104.5t-91 -69.5t-117 -25.5q-123 0 -195.5 71.5t-72.5 192.5zM205 803q0 -100 49 -161.5t123 -61.5q57 0 102 53t45 174q0 100 -51 161.5t-125 61.5 q-57 0 -100 -60.5t-43 -166.5z" />
<glyph unicode="&#xbb;" horiz-adv-x="931" d="M489 109l129 235l99 51l-99 51l-129 236l7 59l292 -290v-109l-292 -291zM143 109l129 235l99 51l-99 51l-129 236l7 59l292 -290v-109l-292 -291z" />
<glyph unicode="&#xbc;" horiz-adv-x="1499" d="M33 1001l313 170l37 -20v-598l131 -23l-6 -49h-381l10 49q72 10 104.5 29t32.5 66v428l-208 -113zM338 2l713 1133l82 -54l-713 -1130zM840 199l358 479h96v-461l113 6l-18 -92h-95v-131h-112v131h-312zM918 199l264 14v336z" />
<glyph unicode="&#xbd;" horiz-adv-x="1499" d="M33 1001l313 170l37 -20v-598l131 -23l-6 -49h-381l10 49q72 10 104.5 29t32.5 66v428l-208 -113zM338 2l713 1133l82 -54l-713 -1130zM952 559q51 57 110.5 93t139.5 36q43 0 83 -14.5t70.5 -40t49 -60t18.5 -73.5q0 -37 -10 -72t-34.5 -74t-68.5 -84t-112 -100 l-119 -98l375 53l-18 -125h-478l7 61l147 138q96 90 141 154.5t45 127.5q0 49 -28.5 86t-71.5 54q-37 -12 -80 -52.5t-78 -87.5z" />
<glyph unicode="&#xbe;" horiz-adv-x="1499" d="M74 530l26 68q41 -23 84 -36t99 -13q68 0 107.5 30.5t39.5 84.5q0 59 -63.5 97t-182.5 50l15 55q98 4 151 36t53 85q0 47 -29.5 76t-78.5 39q-33 -8 -78 -39t-76 -64l-67 82q55 47 112.5 67.5t116.5 20.5q43 0 83 -13t69.5 -35.5t47 -54.5t17.5 -69q0 -53 -45 -97 t-147 -60q96 -10 160.5 -52.5t64.5 -128.5q0 -82 -68.5 -135t-183.5 -53q-66 0 -122 15t-105 44zM350 2l713 1133l82 -54l-713 -1130zM840 199l358 479h96v-461l113 6l-18 -92h-95v-131h-112v131h-312zM918 199l264 14v336z" />
<glyph unicode="&#xbf;" horiz-adv-x="761" d="M61 -131q0 31 5.5 63.5t22.5 68.5t50 77t88 90q49 43 80 73.5t49.5 54t24.5 41t6 36.5q0 29 -11 52.5t-32 47.5l68 21q47 -35 74.5 -74t27.5 -80q0 -25 -8 -49.5t-27.5 -53t-51.5 -62.5t-79 -79q-84 -80 -115.5 -131t-31.5 -108q0 -35 10 -62.5t25 -46.5q16 -12 33.5 -18 t52.5 -6q25 0 52 6t60 21.5t74 44t94 71.5l103 -117q-92 -72 -171 -101.5t-172 -29.5q-66 0 -121 19.5t-95 53.5t-62.5 79t-22.5 98zM268 709q0 104 103 104q55 0 79.5 -26.5t24.5 -77.5q0 -104 -104 -105q-103 1 -103 105z" />
<glyph unicode="&#xc0;" horiz-adv-x="1134" d="M10 0l17 61q57 14 97 47t69 111l307 856l135 31l366 -1016l134 -29l-17 -61h-389l16 61l82 29l-84 240h-403l-92 -240l96 -29l-12 -61h-322zM360 1384q0 29 23 51.5t51 32.5l305 -239l-30 -45l-172 57q-106 37 -141.5 69.5t-35.5 73.5zM367 420h344l-172 493z" />
<glyph unicode="&#xc1;" horiz-adv-x="1134" d="M10 0l17 61q57 14 97 47t69 111l307 856l135 31l366 -1016l134 -29l-17 -61h-389l16 61l82 29l-84 240h-403l-92 -240l96 -29l-12 -61h-322zM367 420h344l-172 493zM395 1247l305 240q29 -10 51.5 -32.5t22.5 -51.5q0 -41 -34.5 -74t-141.5 -69l-172 -58z" />
<glyph unicode="&#xc2;" horiz-adv-x="1134" d="M10 0l17 61q57 14 97 47t69 111l307 856l135 31l366 -1016l134 -29l-17 -61h-389l16 61l82 29l-84 240h-403l-92 -240l96 -29l-12 -61h-322zM258 1251l279 152h65l279 -152l-41 -57l-222 51l-49 62l-49 -62l-221 -51zM367 420h344l-172 493z" />
<glyph unicode="&#xc3;" horiz-adv-x="1134" d="M10 0l17 61q57 14 97 47t69 111l307 856l135 31l366 -1016l134 -29l-17 -61h-389l16 61l82 29l-84 240h-403l-92 -240l96 -29l-12 -61h-322zM279 1225q113 184 186 184q27 0 49.5 -7t50.5 -22l156 -75l133 104l39 -43q-113 -182 -186 -182q-27 0 -50.5 8t-52.5 22 l-153 74l-134 -104zM367 420h344l-172 493z" />
<glyph unicode="&#xc4;" horiz-adv-x="1134" d="M10 0l17 61q57 14 97 47t69 111l307 856l135 31l366 -1016l134 -29l-17 -61h-389l16 61l82 29l-84 240h-403l-92 -240l96 -29l-12 -61h-322zM274 1321q0 94 93 94q92 0 92 -94t-92 -94q-93 0 -93 94zM367 420h344l-172 493zM680 1321q0 47 24.5 70.5t67.5 23.5 q92 0 92 -94t-92 -94t-92 94z" />
<glyph unicode="&#xc5;" horiz-adv-x="1134" d="M10 0l17 61q57 14 97 47t69 111l294 821q-53 23 -81.5 67t-28.5 97q0 37 14.5 70t40 57.5t61 39.5t78.5 15t79 -15t61.5 -39.5t39 -57.5t13.5 -70q0 -53 -28.5 -97t-78.5 -67l344 -950l134 -29l-17 -61h-389l16 61l82 29l-84 240h-403l-92 -240l96 -29l-12 -61h-322z M367 420h344l-172 493zM473 1204q0 -45 27.5 -72.5t70.5 -27.5q45 0 71 27.5t26 72.5q0 43 -26 73t-71 30q-43 0 -70.5 -30t-27.5 -73z" />
<glyph unicode="&#xc6;" horiz-adv-x="1456" d="M4 0l16 61q31 8 54.5 18.5t44 27t39 42t41.5 62.5l442 790l-113 19l11 59h829l-57 -225h-64l-18 115l-338 20v-377h348l-22 -90h-326v-432l362 27l66 125h65l-38 -242h-732l17 61q59 12 77.5 38t18.5 81v150h-344l-129 -240l96 -29l-12 -61h-334zM430 420h297v393 q0 47 1 90t3 76h-2q-12 -29 -28.5 -59.5t-34.5 -65.5z" />
<glyph unicode="&#xc7;" horiz-adv-x="1050" d="M96 514q0 117 42 222.5t116 185t175 127t220 47.5q109 0 195 -18.5t151 -47.5l-51 -199h-67l-25 107q-39 23 -94.5 39t-126.5 16q-74 0 -137.5 -28.5t-111.5 -85t-74.5 -142.5t-26.5 -202q0 -111 26.5 -195t74.5 -142.5t114.5 -88t146.5 -29.5h25l4 4l4 -4q51 4 96 17.5 t82 41.5l57 133h72l-20 -202q-66 -39 -135.5 -61.5t-159.5 -28.5l-43 -60q72 -29 109.5 -58.5t37.5 -64.5q0 -41 -62.5 -87t-220.5 -97l-26 53q47 25 75.5 43.5t44 31.5t20.5 23.5t5 18.5q0 16 -22.5 35.5t-79.5 50.5l84 108q-111 2 -201 43t-155.5 112t-101.5 168t-36 214z " />
<glyph unicode="&#xc8;" d="M68 1020l12 59h774l-57 -225h-64l-18 115l-338 20v-377h348l-23 -90h-325v-432l362 27l66 125h65l-39 -242h-733l17 61q59 12 78.5 38t19.5 81v809zM281 1384q0 29 22.5 51.5t50.5 32.5l305 -239l-30 -45l-172 57q-106 37 -141 69.5t-35 73.5z" />
<glyph unicode="&#xc9;" d="M68 1020l12 59h774l-57 -225h-64l-18 115l-338 20v-377h348l-23 -90h-325v-432l362 27l66 125h65l-39 -242h-733l17 61q59 12 78.5 38t19.5 81v809zM356 1247l306 240q29 -10 51 -32.5t22 -51.5q0 -41 -34.5 -74t-141.5 -69l-172 -58z" />
<glyph unicode="&#xca;" d="M68 1020l12 59h774l-57 -225h-64l-18 115l-338 20v-377h348l-23 -90h-325v-432l362 27l66 125h65l-39 -242h-733l17 61q59 12 78.5 38t19.5 81v809zM199 1251l278 152h66l278 -152l-41 -57l-221 51l-49 62l-49 -62l-221 -51z" />
<glyph unicode="&#xcb;" d="M68 1020l12 59h774l-57 -225h-64l-18 115l-338 20v-377h348l-23 -90h-325v-432l362 27l66 125h65l-39 -242h-733l17 61q59 12 78.5 38t19.5 81v809zM215 1321q0 94 92 94t92 -94t-92 -94t-92 94zM621 1321q0 47 24.5 70.5t67.5 23.5q92 0 92 -94t-92 -94t-92 94z" />
<glyph unicode="&#xcc;" horiz-adv-x="587" d="M68 1020l12 59h405l-12 -59q-57 -14 -76.5 -40t-19.5 -79v-811l143 -29l-14 -61h-408l17 61q59 12 78.5 38t19.5 79v811zM76 1384q0 29 22.5 51.5t51.5 32.5l305 -239l-31 -45l-172 57q-106 37 -141 69.5t-35 73.5z" />
<glyph unicode="&#xcd;" horiz-adv-x="587" d="M68 1020l12 59h405l-12 -59q-57 -14 -76.5 -40t-19.5 -79v-811l143 -29l-14 -61h-408l17 61q59 12 78.5 38t19.5 79v811zM152 1247l305 240q29 -10 51 -32.5t22 -51.5q0 -41 -34.5 -74t-141.5 -69l-172 -58z" />
<glyph unicode="&#xce;" horiz-adv-x="587" d="M-12 1251l278 152h66l278 -152l-41 -57l-221 51l-49 62l-49 -62l-221 -51zM68 1020l12 59h405l-12 -59q-57 -14 -76.5 -40t-19.5 -79v-811l143 -29l-14 -61h-408l17 61q59 12 78.5 38t19.5 79v811z" />
<glyph unicode="&#xcf;" horiz-adv-x="587" d="M39 1321q0 94 92 94t92 -94t-92 -94t-92 94zM68 1020l12 59h405l-12 -59q-57 -14 -76.5 -40t-19.5 -79v-811l143 -29l-14 -61h-408l17 61q59 12 78.5 38t19.5 79v811zM367 1321q0 47 24.5 70.5t67.5 23.5q92 0 92 -94t-92 -94t-92 94z" />
<glyph unicode="&#xd0;" horiz-adv-x="1167" d="M66 506v90h147v393l-145 31l12 59h409q287 0 434.5 -133t147.5 -379q0 -133 -40 -237.5t-113.5 -178t-178 -112.5t-233.5 -39h-408l17 61q59 12 78.5 37t19.5 78v330h-147zM377 90h67q219 0 331 96.5t112 329.5q0 246 -111.5 359.5t-341.5 113.5h-57v-393h250v-90h-250 v-416z" />
<glyph unicode="&#xd1;" horiz-adv-x="1239" d="M68 1020l12 59h229l572 -684q35 -41 51 -61.5t29 -36.5l2 2q-2 35 -2 65v89v536l-105 31l10 59h316l-17 -59q-59 -14 -78.5 -39t-19.5 -78v-903h-82l-596 721q-49 57 -72 90l-2 -2q2 -27 3 -54.5t1 -74.5v-590l134 -29l-11 -61h-344l17 61q59 12 78.5 38t19.5 79v811z M365 1225q113 184 186 184q27 0 49.5 -7t50.5 -22l156 -75l133 104l39 -43q-113 -182 -186 -182q-27 0 -50.5 8t-52.5 22l-153 74l-134 -104z" />
<glyph unicode="&#xd2;" horiz-adv-x="1226" d="M96 498q0 125 42 234.5t116 190.5t173 127t214 46t206 -37t153.5 -106.5t96 -167t33.5 -218.5t-38.5 -228.5t-107.5 -187t-165 -127t-209 -47.5q-115 0 -209 36t-161.5 103.5t-105.5 164t-38 217.5zM281 535q0 -211 89 -333t261 -122q68 0 125 23.5t99 76.5t66.5 139.5 t24.5 210.5q0 211 -88 337t-260 126q-68 0 -125 -25.5t-100 -81t-67.5 -142t-24.5 -209.5zM399 1384q0 29 22.5 51.5t51.5 32.5l305 -239l-30 -45l-173 57q-106 37 -141 69.5t-35 73.5z" />
<glyph unicode="&#xd3;" horiz-adv-x="1226" d="M96 498q0 125 42 234.5t116 190.5t173 127t214 46t206 -37t153.5 -106.5t96 -167t33.5 -218.5t-38.5 -228.5t-107.5 -187t-165 -127t-209 -47.5q-115 0 -209 36t-161.5 103.5t-105.5 164t-38 217.5zM281 535q0 -211 89 -333t261 -122q68 0 125 23.5t99 76.5t66.5 139.5 t24.5 210.5q0 211 -88 337t-260 126q-68 0 -125 -25.5t-100 -81t-67.5 -142t-24.5 -209.5zM516 1247l305 240q29 -10 51.5 -32.5t22.5 -51.5q0 -41 -35 -74t-141 -69l-172 -58z" />
<glyph unicode="&#xd4;" horiz-adv-x="1226" d="M96 498q0 125 42 234.5t116 190.5t173 127t214 46t206 -37t153.5 -106.5t96 -167t33.5 -218.5t-38.5 -228.5t-107.5 -187t-165 -127t-209 -47.5q-115 0 -209 36t-161.5 103.5t-105.5 164t-38 217.5zM281 535q0 -211 89 -333t261 -122q68 0 125 23.5t99 76.5t66.5 139.5 t24.5 210.5q0 211 -88 337t-260 126q-68 0 -125 -25.5t-100 -81t-67.5 -142t-24.5 -209.5zM317 1251l279 152h66l278 -152l-41 -57l-221 51l-49 62l-49 -62l-222 -51z" />
<glyph unicode="&#xd5;" horiz-adv-x="1226" d="M96 498q0 125 42 234.5t116 190.5t173 127t214 46t206 -37t153.5 -106.5t96 -167t33.5 -218.5t-38.5 -228.5t-107.5 -187t-165 -127t-209 -47.5q-115 0 -209 36t-161.5 103.5t-105.5 164t-38 217.5zM281 535q0 -211 89 -333t261 -122q68 0 125 23.5t99 76.5t66.5 139.5 t24.5 210.5q0 211 -88 337t-260 126q-68 0 -125 -25.5t-100 -81t-67.5 -142t-24.5 -209.5zM338 1225q113 184 186 184q27 0 49.5 -7t51.5 -22l155 -75l133 104l39 -43q-113 -182 -186 -182q-27 0 -50.5 8t-51.5 22l-154 74l-133 -104z" />
<glyph unicode="&#xd6;" horiz-adv-x="1226" d="M96 498q0 125 42 234.5t116 190.5t173 127t214 46t206 -37t153.5 -106.5t96 -167t33.5 -218.5t-38.5 -228.5t-107.5 -187t-165 -127t-209 -47.5q-115 0 -209 36t-161.5 103.5t-105.5 164t-38 217.5zM281 535q0 -211 89 -333t261 -122q68 0 125 23.5t99 76.5t66.5 139.5 t24.5 210.5q0 211 -88 337t-260 126q-68 0 -125 -25.5t-100 -81t-67.5 -142t-24.5 -209.5zM334 1321q0 94 92 94t92 -94t-92 -94t-92 94zM739 1321q0 47 24.5 70.5t67.5 23.5q92 0 93 -94q0 -94 -93 -94q-92 0 -92 94z" />
<glyph unicode="&#xd7;" d="M78 778l74 74l321 -322l322 322l71 -74l-319 -321l319 -320l-71 -74l-322 320l-319 -320l-74 74l319 320z" />
<glyph unicode="&#xd8;" horiz-adv-x="1226" d="M63 20l136 144q-45 59 -74 141t-29 193q0 125 42 234.5t116 190.5t173 127t214 46q96 0 178 -28t135 -75l111 121l63 -59l-110 -123q53 -70 82.5 -161t29.5 -204q0 -121 -38.5 -228.5t-107.5 -187t-165 -127t-209 -47.5q-213 0 -350 119l-127 -135zM281 535 q0 -74 11 -140.5t34 -107.5l520 592q-82 115 -248 114q-68 0 -125 -25.5t-100 -81t-67.5 -142t-24.5 -209.5zM371 203q41 -57 105.5 -90t154.5 -33q68 0 125 23.5t99 76.5t66.5 139.5t24.5 210.5q0 76 -15.5 150t-37.5 117z" />
<glyph unicode="&#xd9;" horiz-adv-x="1204" d="M51 1020l10 59h412l-16 -59q-57 -14 -77 -39t-20 -78v-485q0 -170 74 -247t219 -77q63 0 116.5 18.5t91.5 59.5t58.5 106.5t20.5 157.5v553l-131 31l10 59h342l-14 -59q-59 -14 -78.5 -40t-19.5 -79v-455q0 -242 -110 -355.5t-314 -113.5q-233 0 -330.5 108t-97.5 347 v557zM422 1384q0 29 22.5 51.5t51.5 32.5l305 -239l-31 -45l-172 57q-106 37 -141 69.5t-35 73.5z" />
<glyph unicode="&#xda;" horiz-adv-x="1204" d="M51 1020l10 59h412l-16 -59q-57 -14 -77 -39t-20 -78v-485q0 -170 74 -247t219 -77q63 0 116.5 18.5t91.5 59.5t58.5 106.5t20.5 157.5v553l-131 31l10 59h342l-14 -59q-59 -14 -78.5 -40t-19.5 -79v-455q0 -242 -110 -355.5t-314 -113.5q-233 0 -330.5 108t-97.5 347 v557zM539 1247l305 240q29 -10 51.5 -32.5t22.5 -51.5q0 -41 -35 -74t-142 -69l-172 -58z" />
<glyph unicode="&#xdb;" horiz-adv-x="1204" d="M51 1020l10 59h412l-16 -59q-57 -14 -77 -39t-20 -78v-485q0 -170 74 -247t219 -77q63 0 116.5 18.5t91.5 59.5t58.5 106.5t20.5 157.5v553l-131 31l10 59h342l-14 -59q-59 -14 -78.5 -40t-19.5 -79v-455q0 -242 -110 -355.5t-314 -113.5q-233 0 -330.5 108t-97.5 347 v557zM340 1251l278 152h66l279 -152l-41 -57l-222 51l-49 62l-49 -62l-221 -51z" />
<glyph unicode="&#xdc;" horiz-adv-x="1204" d="M51 1020l10 59h412l-16 -59q-57 -14 -77 -39t-20 -78v-485q0 -170 74 -247t219 -77q63 0 116.5 18.5t91.5 59.5t58.5 106.5t20.5 157.5v553l-131 31l10 59h342l-14 -59q-59 -14 -78.5 -40t-19.5 -79v-455q0 -242 -110 -355.5t-314 -113.5q-233 0 -330.5 108t-97.5 347 v557zM356 1321q0 94 93 94q92 0 92 -94t-92 -94q-93 0 -93 94zM762 1321q0 47 24.5 70.5t67.5 23.5q92 0 92 -94t-92 -94t-92 94z" />
<glyph unicode="&#xdd;" horiz-adv-x="1017" d="M20 1020l13 59h360l-12 -59l-72 -31l252 -440l242 440l-119 31l12 59h312l-15 -59q-25 -6 -43 -14.5t-34.5 -23.5t-34 -41t-39.5 -64l-234 -428v-359l144 -29l-11 -61h-409l16 61q59 12 77.5 38t18.5 79v262l-317 549zM432 1247l305 240q29 -10 51.5 -32.5t22.5 -51.5 q0 -41 -35 -74t-141 -69l-172 -58z" />
<glyph unicode="&#xde;" horiz-adv-x="966" d="M68 1020l12 59h405l-12 -59q-57 -14 -76.5 -40t-19.5 -79v-49h127q205 0 308 -80t103 -211q0 -84 -34.5 -145.5t-96 -101.5t-143.5 -59t-176 -19h-88v-146l143 -29l-14 -61h-408l17 61q59 12 78.5 37t19.5 78v813zM377 305h43q164 0 237.5 56.5t73.5 179.5 q0 229 -295 229h-59v-465z" />
<glyph unicode="&#xdf;" horiz-adv-x="1081" d="M25 727l16 57h154q2 170 94 273.5t264 103.5q139 0 220 -69.5t81 -180.5q0 -33 -12.5 -85t-40.5 -93q-66 -12 -102.5 -38.5t-36.5 -67.5q0 -16 7 -32.5t26.5 -35t53 -41t87.5 -55.5q61 -37 101 -67.5t62.5 -60.5t31.5 -59.5t9 -62.5q0 -57 -22.5 -101t-60 -74t-87 -45.5 t-102.5 -15.5q-82 0 -153.5 20.5t-139.5 61.5l45 185h76l10 -115q29 -27 74 -44t96 -17q68 0 101.5 26.5t33.5 67.5q0 23 -8 43t-30.5 42.5t-60.5 48.5t-97 58q-102 57 -143.5 109.5t-41.5 116.5q0 125 142 194q16 37 22 66.5t6 64.5q0 74 -51 120t-129 46q-47 0 -83 -13.5 t-64 -31.5q-6 -16 -11.5 -35.5t-8.5 -49.5t-4 -70t-1 -97v-774h-258l16 61q47 10 68 29t21 60v536z" />
<glyph unicode="&#xe0;" horiz-adv-x="806" d="M63 209q0 41 17.5 82t46.5 63q47 37 139 68t244 51v31q0 98 -29.5 151.5t-83.5 75.5q-94 -29 -223 -143l-84 117q78 53 154.5 76.5t165.5 23.5q106 0 180 -73t74 -202v-424l112 -30v-27q-20 -27 -56 -46t-67 -19q-49 0 -82.5 26.5t-50.5 85.5q-47 -53 -107.5 -82.5 t-125.5 -29.5q-45 0 -85 14t-71 43t-49.5 71t-18.5 97zM217 229q0 -66 30.5 -102.5t96.5 -36.5q53 0 96 20.5t72 55.5q0 23 -1 57.5t-1 75.5v84q-41 0 -81 -3t-77 -9t-65.5 -13.5t-46.5 -15.5q-23 -45 -23 -113zM174 1176q0 33 23.5 58.5t60.5 35.5l219 -320l-41 -39 l-135 103q-76 57 -101.5 94t-25.5 68z" />
<glyph unicode="&#xe1;" horiz-adv-x="806" d="M63 209q0 41 17.5 82t46.5 63q47 37 139 68t244 51v31q0 98 -29.5 151.5t-83.5 75.5q-94 -29 -223 -143l-84 117q78 53 154.5 76.5t165.5 23.5q106 0 180 -73t74 -202v-424l112 -30v-27q-20 -27 -56 -46t-67 -19q-49 0 -82.5 26.5t-50.5 85.5q-47 -53 -107.5 -82.5 t-125.5 -29.5q-45 0 -85 14t-71 43t-49.5 71t-18.5 97zM217 229q0 -66 30.5 -102.5t96.5 -36.5q53 0 96 20.5t72 55.5q0 23 -1 57.5t-1 75.5v84q-41 0 -81 -3t-77 -9t-65.5 -13.5t-46.5 -15.5q-23 -45 -23 -113zM299 950l219 320q37 -10 60.5 -36t23.5 -58q0 -31 -25.5 -68 t-101.5 -94l-135 -103z" />
<glyph unicode="&#xe2;" horiz-adv-x="806" d="M63 209q0 41 17.5 82t46.5 63q47 37 139 68t244 51v31q0 98 -29.5 151.5t-83.5 75.5q-94 -29 -223 -143l-84 117q78 53 154.5 76.5t165.5 23.5q106 0 180 -73t74 -202v-424l112 -30v-27q-20 -27 -56 -46t-67 -19q-49 0 -82.5 26.5t-50.5 85.5q-47 -53 -107.5 -82.5 t-125.5 -29.5q-45 0 -85 14t-71 43t-49.5 71t-18.5 97zM217 229q0 -66 30.5 -102.5t96.5 -36.5q53 0 96 20.5t72 55.5q0 23 -1 57.5t-1 75.5v84q-41 0 -81 -3t-77 -9t-65.5 -13.5t-46.5 -15.5q-23 -45 -23 -113zM145 956l234 246h49l233 -246l-41 -47l-180 115l-37 61 l-36 -61l-181 -115z" />
<glyph unicode="&#xe3;" horiz-adv-x="806" d="M63 209q0 41 17.5 82t46.5 63q47 37 139 68t244 51v31q0 98 -29.5 151.5t-83.5 75.5q-94 -29 -223 -143l-84 117q78 53 154.5 76.5t165.5 23.5q106 0 180 -73t74 -202v-424l112 -30v-27q-20 -27 -56 -46t-67 -19q-49 0 -82.5 26.5t-50.5 85.5q-47 -53 -107.5 -82.5 t-125.5 -29.5q-45 0 -85 14t-71 43t-49.5 71t-18.5 97zM217 229q0 -66 30.5 -102.5t96.5 -36.5q53 0 96 20.5t72 55.5q0 23 -1 57.5t-1 75.5v84q-41 0 -81 -3t-77 -9t-65.5 -13.5t-46.5 -15.5q-23 -45 -23 -113zM129 950q61 98 101 134t67 36q23 0 46.5 -8t63.5 -31l113 -59 l133 96l31 -39q-109 -168 -164 -168q-16 0 -46 10.5t-77 34.5l-102 58l-135 -101z" />
<glyph unicode="&#xe4;" horiz-adv-x="806" d="M63 209q0 41 17.5 82t46.5 63q47 37 139 68t244 51v31q0 98 -29.5 151.5t-83.5 75.5q-94 -29 -223 -143l-84 117q78 53 154.5 76.5t165.5 23.5q106 0 180 -73t74 -202v-424l112 -30v-27q-20 -27 -56 -46t-67 -19q-49 0 -82.5 26.5t-50.5 85.5q-47 -53 -107.5 -82.5 t-125.5 -29.5q-45 0 -85 14t-71 43t-49.5 71t-18.5 97zM217 229q0 -66 30.5 -102.5t96.5 -36.5q53 0 96 20.5t72 55.5q0 23 -1 57.5t-1 75.5v84q-41 0 -81 -3t-77 -9t-65.5 -13.5t-46.5 -15.5q-23 -45 -23 -113zM147 1021q0 90 88 91q88 0 89 -91q0 -41 -21.5 -65.5 t-67.5 -24.5q-88 0 -88 90zM483 1021q0 90 90 91q86 0 86 -91q0 -41 -20.5 -65.5t-65.5 -24.5q-90 0 -90 90z" />
<glyph unicode="&#xe5;" horiz-adv-x="806" d="M63 209q0 41 17.5 82t46.5 63q47 37 139 68t244 51v31q0 98 -29.5 151.5t-83.5 75.5q-94 -29 -223 -143l-84 117q78 53 155 76.5t165 23.5q106 0 180 -73t74 -202v-424l112 -30v-27q-20 -27 -56 -46t-67 -19q-49 0 -82.5 26.5t-50.5 85.5q-47 -53 -107.5 -82.5 t-125.5 -29.5q-45 0 -85 14t-71 43t-49.5 71t-18.5 97zM199 1069q0 39 16 74t44 61.5t65.5 42t81.5 15.5q43 0 79.5 -15.5t64.5 -42t44 -61.5t16 -74t-16 -73.5t-44 -60.5t-64.5 -41t-79.5 -15t-81 15t-66 41t-44 60.5t-16 73.5zM217 229q0 -66 31 -102.5t96 -36.5 q53 0 96 20.5t72 55.5q0 23 -1 57.5t-1 75.5v84q-41 0 -81 -3t-77 -9t-65.5 -13.5t-46.5 -15.5q-23 -45 -23 -113zM299 1069q0 -49 29.5 -80t77.5 -31q49 0 76.5 31t27.5 80q0 47 -27.5 80t-76.5 33q-47 0 -77 -33t-30 -80z" />
<glyph unicode="&#xe6;" horiz-adv-x="1202" d="M63 209q0 41 17.5 82t46.5 63q47 37 139 68t244 51v31q0 55 -7 93t-21.5 64.5t-36 43t-48.5 26.5q-94 -29 -223 -143l-86 117q80 53 157 76.5t165 23.5q68 0 121 -31t81 -98q37 66 108 100.5t157 34.5q123 0 194.5 -63.5t71.5 -192.5q0 -41 -11.5 -89t-23.5 -77h-451 q4 -162 74 -235.5t211 -73.5q39 0 72 5t63 15l19 -63q-47 -27 -110.5 -42t-135.5 -15q-102 0 -171 38.5t-116 110.5q-66 -78 -128 -111.5t-148 -33.5q-45 0 -85 14t-71 43t-49.5 71t-18.5 97zM217 229q0 -66 29.5 -102.5t87.5 -36.5q55 0 109.5 30t88.5 70q-10 29 -16 73 t-6 85v35q-41 0 -81 -3t-77 -9t-65.5 -13.5t-46.5 -15.5q-23 -45 -23 -113zM657 455l322 24q10 31 10 82q0 86 -40 126t-99 40q-29 0 -61.5 -10t-61.5 -23q-29 -37 -49.5 -104t-20.5 -135z" />
<glyph unicode="&#xe7;" horiz-adv-x="688" d="M66 348q0 98 28.5 182t79.5 145.5t122 95.5t153 34q127 0 213 -49l-39 -176h-70l-23 90q-43 33 -120 32q-33 0 -69 -7t-58 -17q-23 -41 -38.5 -118t-15.5 -171q0 -162 71 -234.5t200 -72.5q35 0 66.5 5t56.5 11l18 -67q-39 -20 -89 -32.5t-101 -16.5l-54 -74 q72 -31 102.5 -57.5t30.5 -55.5q0 -18 -11 -36.5t-42 -40t-84 -48t-135 -61.5l-27 45q94 51 124 78.5t30 44.5q0 16 -20.5 32.5t-77.5 47.5l94 125q-150 10 -232.5 101t-82.5 265z" />
<glyph unicode="&#xe8;" horiz-adv-x="774" d="M66 348q0 98 27.5 183t77.5 146.5t120.5 96.5t157.5 35q125 0 195.5 -65.5t70.5 -188.5q0 -35 -10.5 -84t-24.5 -82h-451q4 -162 74 -235.5t211 -73.5q39 0 71.5 5t63.5 15l19 -63q-47 -27 -110.5 -42t-135.5 -15q-160 0 -258 95t-98 273zM229 455l324 22q4 18 6 38t2 42 q0 78 -38 123t-99 45q-63 0 -125 -31q-23 -37 -44.5 -100t-25.5 -139zM209 1176q0 33 23.5 58.5t60.5 35.5l219 -320l-41 -39l-135 103q-76 57 -101.5 94t-25.5 68z" />
<glyph unicode="&#xe9;" horiz-adv-x="774" d="M66 348q0 98 27.5 183t77.5 146.5t120.5 96.5t157.5 35q125 0 195.5 -65.5t70.5 -188.5q0 -35 -10.5 -84t-24.5 -82h-451q4 -162 74 -235.5t211 -73.5q39 0 71.5 5t63.5 15l19 -63q-47 -27 -110.5 -42t-135.5 -15q-160 0 -258 95t-98 273zM229 455l324 22q4 18 6 38t2 42 q0 78 -38 123t-99 45q-63 0 -125 -31q-23 -37 -44.5 -100t-25.5 -139zM357 950l219 320q37 -10 60.5 -36t23.5 -58q0 -31 -25.5 -68t-101.5 -94l-135 -103z" />
<glyph unicode="&#xea;" horiz-adv-x="774" d="M66 348q0 98 27.5 183t77.5 146.5t120.5 96.5t157.5 35q125 0 195.5 -65.5t70.5 -188.5q0 -35 -10.5 -84t-24.5 -82h-451q4 -162 74 -235.5t211 -73.5q39 0 71.5 5t63.5 15l19 -63q-47 -27 -110.5 -42t-135.5 -15q-160 0 -258 95t-98 273zM229 455l324 22q4 18 6 38t2 42 q0 78 -38 123t-99 45q-63 0 -125 -31q-23 -37 -44.5 -100t-25.5 -139zM182 956l234 246h49l233 -246l-41 -47l-180 115l-37 61l-36 -61l-181 -115z" />
<glyph unicode="&#xeb;" horiz-adv-x="774" d="M66 348q0 98 27.5 183t77.5 146.5t120.5 96.5t157.5 35q125 0 195.5 -65.5t70.5 -188.5q0 -35 -10.5 -84t-24.5 -82h-451q4 -162 74 -235.5t211 -73.5q39 0 71.5 5t63.5 15l19 -63q-47 -27 -110.5 -42t-135.5 -15q-160 0 -258 95t-98 273zM229 455l324 22q4 18 6 38t2 42 q0 78 -38 123t-99 45q-63 0 -125 -31q-23 -37 -44.5 -100t-25.5 -139zM184 1021q0 90 88 91q88 0 89 -91q0 -41 -21.5 -65.5t-67.5 -24.5q-88 0 -88 90zM520 1021q0 90 90 91q86 0 86 -91q0 -41 -20.5 -65.5t-65.5 -24.5q-90 0 -90 90z" />
<glyph unicode="&#xec;" horiz-adv-x="514" d="M51 709l15 59l276 35v-713l131 -29l-12 -61h-375l14 61q47 10 67.5 29t20.5 60v528zM72 1176q0 33 23.5 58.5t60.5 35.5l219 -320l-41 -39l-135 103q-76 57 -101.5 94t-25.5 68z" />
<glyph unicode="&#xed;" horiz-adv-x="514" d="M51 709l15 59l276 35v-713l131 -29l-12 -61h-375l14 61q47 10 67.5 29t20.5 60v528zM158 950l219 320q37 -10 60.5 -36t23.5 -58q0 -31 -25.5 -68t-101.5 -94l-135 -103z" />
<glyph unicode="&#xee;" horiz-adv-x="514" d="M4 954l234 246h49l233 -246l-41 -47l-180 115l-37 61l-37 -61l-180 -115zM51 709l15 59l276 35v-713l131 -29l-12 -61h-375l14 61q47 10 67.5 29t20.5 60v528z" />
<glyph unicode="&#xef;" horiz-adv-x="514" d="M16 1022q0 90 88 90t89 -90q0 -41 -21.5 -65.5t-67.5 -24.5q-88 0 -88 90zM51 709l15 59l276 35v-713l131 -29l-12 -61h-375l14 61q47 10 67.5 29t20.5 60v528zM322 1022q0 90 90 90q86 0 86 -90q0 -41 -20.5 -65.5t-65.5 -24.5q-90 0 -90 90z" />
<glyph unicode="&#xf0;" horiz-adv-x="903" d="M72 348q0 90 27.5 169t75.5 136.5t114.5 90t146.5 32.5q66 0 114 -22.5t71 -44.5l2 2q-43 129 -131 223l-193 -98l-35 67l166 86q-88 70 -201 109l19 65q82 -16 154.5 -47t134.5 -74l202 105l33 -70l-170 -88q109 -98 169 -235.5t60 -300.5q0 -117 -28.5 -205 t-80.5 -148.5t-124 -90t-160 -29.5q-168 0 -267 100t-99 268zM236 393q0 -160 58 -241.5t150 -81.5q43 0 84 20.5t72 62.5t49.5 105.5t18.5 149.5t-6.5 129t-18.5 77q-27 31 -76 51.5t-104 20.5q-102 0 -164.5 -70.5t-62.5 -222.5z" />
<glyph unicode="&#xf1;" horiz-adv-x="1007" d="M51 709l15 59l229 35l37 -139q104 80 167.5 109.5t121.5 29.5q100 0 159.5 -62.5t59.5 -185.5v-465l131 -29l-13 -61h-374l16 61q47 10 66.5 29t19.5 60v344q0 78 -26.5 124t-75.5 68q-59 -6 -114.5 -26.5t-127.5 -61.5v-508l131 -29l-12 -61h-375l14 61q47 10 67.5 29 t20.5 60v528zM236 950q61 98 101 134t67 36q23 0 46.5 -8t63.5 -31l113 -59l133 96l31 -39q-109 -168 -164 -168q-16 0 -46 10.5t-77 34.5l-102 58l-135 -101z" />
<glyph unicode="&#xf2;" horiz-adv-x="897" d="M72 348q0 90 24.5 173t72.5 147.5t120.5 102.5t169.5 38q88 0 156.5 -27.5t114.5 -77t70.5 -118t24.5 -150.5q0 -96 -28.5 -179t-80.5 -144.5t-124 -97t-158 -35.5q-178 0 -270 100t-92 268zM236 393q0 -160 67.5 -241.5t161.5 -81.5q45 0 82 15t62.5 53t39 100.5 t13.5 154.5q0 78 -18.5 138.5t-51.5 102.5t-75 63.5t-87 21.5q-98 0 -146 -78t-48 -248zM215 1176q0 33 23.5 58.5t60.5 35.5l219 -320l-41 -39l-135 103q-76 57 -101.5 94t-25.5 68z" />
<glyph unicode="&#xf3;" horiz-adv-x="897" d="M72 348q0 90 24.5 173t72.5 147.5t120.5 102.5t169.5 38q88 0 156.5 -27.5t114.5 -77t70.5 -118t24.5 -150.5q0 -96 -28.5 -179t-80.5 -144.5t-124 -97t-158 -35.5q-178 0 -270 100t-92 268zM236 393q0 -160 67.5 -241.5t161.5 -81.5q45 0 82 15t62.5 53t39 100.5 t13.5 154.5q0 78 -18.5 138.5t-51.5 102.5t-75 63.5t-87 21.5q-98 0 -146 -78t-48 -248zM363 950l219 320q37 -10 60.5 -36t23.5 -58q0 -31 -25.5 -68t-101.5 -94l-135 -103z" />
<glyph unicode="&#xf4;" horiz-adv-x="897" d="M72 348q0 90 24.5 173t72.5 147.5t120.5 102.5t169.5 38q88 0 156.5 -27.5t114.5 -77t70.5 -118t24.5 -150.5q0 -96 -28.5 -179t-80.5 -144.5t-124 -97t-158 -35.5q-178 0 -270 100t-92 268zM236 393q0 -160 67.5 -241.5t161.5 -81.5q45 0 82 15t62.5 53t39 100.5 t13.5 154.5q0 78 -18.5 138.5t-51.5 102.5t-75 63.5t-87 21.5q-98 0 -146 -78t-48 -248zM188 956l234 246h49l233 -246l-41 -47l-180 115l-37 61l-36 -61l-181 -115z" />
<glyph unicode="&#xf5;" horiz-adv-x="897" d="M72 348q0 90 24.5 173t72.5 147.5t120.5 102.5t169.5 38q88 0 156.5 -27.5t114.5 -77t70.5 -118t24.5 -150.5q0 -96 -28.5 -179t-80.5 -144.5t-124 -97t-158 -35.5q-178 0 -270 100t-92 268zM236 393q0 -160 67.5 -241.5t161.5 -81.5q45 0 82 15t62.5 53t39 100.5 t13.5 154.5q0 78 -18.5 138.5t-51.5 102.5t-75 63.5t-87 21.5q-98 0 -146 -78t-48 -248zM172 950q61 98 101 134t67 36q23 0 46.5 -8t63.5 -31l113 -59l133 96l31 -39q-109 -168 -164 -168q-16 0 -46 10.5t-77 34.5l-102 58l-135 -101z" />
<glyph unicode="&#xf6;" horiz-adv-x="897" d="M72 348q0 90 24.5 173t72.5 147.5t120.5 102.5t169.5 38q88 0 156.5 -27.5t114.5 -77t70.5 -118t24.5 -150.5q0 -96 -28.5 -179t-80.5 -144.5t-124 -97t-158 -35.5q-178 0 -270 100t-92 268zM236 393q0 -160 67.5 -241.5t161.5 -81.5q45 0 82 15t62.5 53t39 100.5 t13.5 154.5q0 78 -18.5 138.5t-51.5 102.5t-75 63.5t-87 21.5q-98 0 -146 -78t-48 -248zM190 1021q0 90 88 91q88 0 89 -91q0 -41 -21.5 -65.5t-67.5 -24.5q-88 0 -88 90zM526 1021q0 90 90 91q86 0 86 -91q0 -41 -20.5 -65.5t-65.5 -24.5q-90 0 -90 90z" />
<glyph unicode="&#xf7;" d="M127 414v110h690v-110h-690zM377 164q0 92 88 92t88 -92q0 -88 -88 -88t-88 88zM377 770q0 90 88 90t88 -90q0 -88 -88 -88t-88 88z" />
<glyph unicode="&#xf8;" horiz-adv-x="897" d="M66 33l71 78q-31 43 -48 104t-17 131q0 90 24.5 173t73.5 147.5t122 103.5t169 39q78 0 138 -21.5t101 -56.5l60 68l59 -54l-63 -73q70 -94 69 -238q0 -96 -28.5 -179t-80.5 -145.5t-124 -98.5t-158 -36q-78 0 -137 20.5t-104 57.5l-66 -71zM236 391q0 -41 6 -84t18 -76 l336 398q-33 43 -76 66.5t-90 23.5q-96 0 -145 -79t-49 -249zM299 156q29 -41 72 -65.5t94 -24.5q45 0 82 16t62.5 54t39 101.5t13.5 157.5q0 41 -7.5 85t-17.5 71z" />
<glyph unicode="&#xf9;" horiz-adv-x="960" d="M31 725l10 59h258v-465q0 -133 34 -183t105 -50q59 0 107.5 26.5t89.5 86.5v495l-131 31l12 59h272v-698l132 -25l-11 -61l-233 -16l-37 135q-55 -72 -118.5 -103.5t-149.5 -31.5q-117 0 -171.5 65.5t-54.5 212.5v432zM215 1176q0 33 23.5 58.5t60.5 35.5l219 -320 l-41 -39l-135 103q-76 57 -101.5 94t-25.5 68z" />
<glyph unicode="&#xfa;" horiz-adv-x="960" d="M31 725l10 59h258v-465q0 -133 34 -183t105 -50q59 0 107.5 26.5t89.5 86.5v495l-131 31l12 59h272v-698l132 -25l-11 -61l-233 -16l-37 135q-55 -72 -118.5 -103.5t-149.5 -31.5q-117 0 -171.5 65.5t-54.5 212.5v432zM363 950l219 320q37 -10 60.5 -36t23.5 -58 q0 -31 -25.5 -68t-101.5 -94l-135 -103z" />
<glyph unicode="&#xfb;" horiz-adv-x="960" d="M31 725l10 59h258v-465q0 -133 34 -183t105 -50q59 0 107.5 26.5t89.5 86.5v495l-131 31l12 59h272v-698l132 -25l-11 -61l-233 -16l-37 135q-55 -72 -118.5 -103.5t-149.5 -31.5q-117 0 -171.5 65.5t-54.5 212.5v432zM188 956l234 246h49l233 -246l-41 -47l-180 115 l-37 61l-36 -61l-181 -115z" />
<glyph unicode="&#xfc;" horiz-adv-x="960" d="M31 725l10 59h258v-465q0 -133 34 -183t105 -50q59 0 107.5 26.5t89.5 86.5v495l-131 31l12 59h272v-698l132 -25l-11 -61l-233 -16l-37 135q-55 -72 -118.5 -103.5t-149.5 -31.5q-117 0 -171.5 65.5t-54.5 212.5v432zM190 1021q0 90 88 91q88 0 89 -91 q0 -41 -21.5 -65.5t-67.5 -24.5q-88 0 -88 90zM526 1021q0 90 90 91q86 0 86 -91q0 -41 -20.5 -65.5t-65.5 -24.5q-90 0 -90 90z" />
<glyph unicode="&#xfd;" horiz-adv-x="862" d="M10 725l13 59h358l-12 -59l-103 -14l205 -531l193 531l-109 14l10 59h285l-10 -59q-43 -6 -65.5 -28.5t-45.5 -82.5l-207 -536q-37 -94 -76.5 -165t-84 -123t-93.5 -87t-104 -57l-117 116q113 33 202 99.5t130 152.5l-287 697zM385 950l219 320q37 -10 60.5 -36t23.5 -58 q0 -31 -25.5 -68t-101.5 -94l-135 -103z" />
<glyph unicode="&#xfe;" horiz-adv-x="962" d="M31 1067l12 61l279 33v-477q66 70 126 97.5t132 27.5q63 0 119.5 -24.5t99.5 -72.5t67.5 -118t24.5 -158q0 -98 -33 -182t-86 -145.5t-122.5 -96.5t-145.5 -35q-113 0 -193 52q4 -12 7.5 -42t3.5 -61v-182l131 -23l-11 -63h-376l16 63q47 10 66.5 29t19.5 60v1228z M322 168q43 -49 90 -72.5t116 -23.5q55 0 105 18q41 45 66.5 121t25.5 195q0 70 -16.5 126t-42 96t-59.5 60.5t-66 20.5q-57 0 -105.5 -22.5t-113.5 -88.5v-430z" />
<glyph unicode="&#xff;" horiz-adv-x="862" d="M10 725l13 59h358l-12 -59l-103 -14l205 -531l193 531l-109 14l10 59h285l-10 -59q-43 -6 -65.5 -28.5t-45.5 -82.5l-207 -536q-37 -94 -76.5 -165t-84 -123t-93.5 -87t-104 -57l-117 116q113 33 202 99.5t130 152.5l-287 697zM213 1021q0 90 88 91q88 0 89 -91 q0 -41 -21.5 -65.5t-67.5 -24.5q-88 0 -88 90zM549 1021q0 90 90 91q86 0 86 -91q0 -41 -20.5 -65.5t-65.5 -24.5q-90 0 -90 90z" />
<glyph unicode="&#x152;" horiz-adv-x="1492" d="M96 498q0 129 39 238.5t109.5 189.5t168 125t212.5 45q55 0 105 -6.5t93 -10.5h580l-57 -225h-64l-18 115l-338 20v-377h348l-23 -90h-325v-432l362 27l66 125h65l-39 -242h-598q-31 -10 -83 -16.5t-99 -6.5q-111 0 -203 36t-159.5 103.5t-104.5 164t-37 217.5zM281 535 q0 -102 22.5 -186.5t67.5 -145t109.5 -93t150.5 -32.5q43 0 72.5 3t58.5 11v877q-29 10 -64.5 17t-89.5 7q-68 0 -127 -25.5t-103 -81t-70.5 -142t-26.5 -209.5z" />
<glyph unicode="&#x153;" horiz-adv-x="1361" d="M72 346q0 90 24.5 173t72.5 147.5t120.5 103.5t169.5 39q100 0 173 -39t120 -108q49 68 123.5 107.5t160.5 39.5q125 0 196 -65.5t71 -188.5q0 -35 -10.5 -84t-24.5 -82h-451q4 -162 74 -235.5t211 -73.5q41 0 72.5 5t62.5 15l18 -63q-47 -27 -110.5 -42t-134.5 -15 q-98 0 -168 37.5t-117 109.5q-111 -147 -291 -147q-178 0 -270 99t-92 267zM236 391q0 -160 67.5 -240.5t161.5 -80.5q45 0 82 15t62.5 53t39 100.5t13.5 156.5q0 76 -19.5 136.5t-51.5 101.5t-74 63.5t-87 22.5q-98 0 -146 -79t-48 -249zM817 455l324 22q4 18 6 38t2 42 q0 78 -38 123t-99 45q-63 0 -125 -31q-23 -37 -44.5 -100t-25.5 -139z" />
<glyph unicode="&#x178;" horiz-adv-x="1017" d="M20 1020l13 59h360l-12 -59l-72 -31l252 -440l242 440l-119 31l12 59h312l-15 -59q-25 -6 -43 -14.5t-34.5 -23.5t-34 -41t-39.5 -64l-234 -428v-359l144 -29l-11 -61h-409l16 61q59 12 77.5 38t18.5 79v262l-317 549zM250 1321q0 94 92 94t92 -94t-92 -94t-92 94z M655 1321q0 47 25 70.5t68 23.5q92 0 92 -94t-92 -94q-93 0 -93 94z" />
<glyph unicode="&#x2c6;" horiz-adv-x="716" d="M100 979l234 246h49l233 -246l-41 -47l-180 115l-37 61l-36 -61l-181 -115z" />
<glyph unicode="&#x2dc;" horiz-adv-x="716" d="M84 950q61 98 101 134t67 36q23 0 46.5 -8t63.5 -31l113 -59l133 96l31 -39q-109 -168 -164 -168q-16 0 -46 10.5t-77 34.5l-102 58l-135 -101z" />
<glyph unicode="&#x2000;" horiz-adv-x="743" />
<glyph unicode="&#x2001;" horiz-adv-x="1486" />
<glyph unicode="&#x2002;" horiz-adv-x="743" />
<glyph unicode="&#x2003;" horiz-adv-x="1486" />
<glyph unicode="&#x2004;" horiz-adv-x="495" />
<glyph unicode="&#x2005;" horiz-adv-x="370" />
<glyph unicode="&#x2006;" horiz-adv-x="247" />
<glyph unicode="&#x2007;" horiz-adv-x="247" />
<glyph unicode="&#x2008;" horiz-adv-x="184" />
<glyph unicode="&#x2009;" horiz-adv-x="296" />
<glyph unicode="&#x200a;" horiz-adv-x="81" />
<glyph unicode="&#x2010;" horiz-adv-x="645" d="M74 360v41q0 49 38 71t91 22h377v-45q0 -49 -37 -69t-99 -20h-370z" />
<glyph unicode="&#x2011;" horiz-adv-x="645" d="M74 360v41q0 49 38 71t91 22h377v-45q0 -49 -37 -69t-99 -20h-370z" />
<glyph unicode="&#x2012;" horiz-adv-x="645" d="M74 360v41q0 49 38 71t91 22h377v-45q0 -49 -37 -69t-99 -20h-370z" />
<glyph unicode="&#x2013;" horiz-adv-x="1024" d="M14 389v113h996v-113h-996z" />
<glyph unicode="&#x2014;" horiz-adv-x="2048" d="M41 389v113h1966v-113h-1966z" />
<glyph unicode="&#x2018;" horiz-adv-x="409" d="M80 897q0 70 47 139.5t162 155.5l41 -45q-96 -131 -109 -234l47 -96l-133 -69q-29 45 -42 81.5t-13 67.5z" />
<glyph unicode="&#x2019;" horiz-adv-x="391" d="M80 774q86 139 92 242l-53 94l127 78q35 -37 50 -79t15 -83q0 -66 -43 -135.5t-141 -157.5z" />
<glyph unicode="&#x201a;" horiz-adv-x="391" d="M80 -238q86 139 92 242l-53 94l127 78q35 -37 50 -79t15 -83q0 -66 -43 -135t-141 -158z" />
<glyph unicode="&#x201c;" horiz-adv-x="698" d="M369 897q0 70 47 139.5t162 155.5l41 -45q-96 -131 -109 -234l47 -96l-133 -69q-29 45 -42 81.5t-13 67.5zM80 897q0 70 47 139.5t162 155.5l41 -45q-96 -131 -109 -234l47 -96l-133 -69q-29 45 -42 81.5t-13 67.5z" />
<glyph unicode="&#x201d;" horiz-adv-x="675" d="M365 774q86 139 92 242l-53 94l127 78q35 -37 50 -79t15 -83q0 -66 -43 -135.5t-141 -157.5zM80 774q86 139 92 242l-53 94l127 78q35 -37 50 -79t15 -83q0 -66 -43 -135.5t-141 -157.5z" />
<glyph unicode="&#x201e;" horiz-adv-x="686" d="M375 -238q86 139 92 242l-53 94l127 78q35 -37 50 -79t15 -83q0 -66 -43 -135t-141 -158zM80 -238q86 139 92 242l-53 94l127 78q35 -37 50 -79t15 -83q0 -66 -43 -135t-141 -158z" />
<glyph unicode="&#x2022;" horiz-adv-x="710" d="M160 440q0 49 18.5 92t50 76t74.5 51.5t92 18.5t92 -18.5t76 -51.5t51.5 -76t18.5 -92t-18.5 -92t-51.5 -74.5t-76 -50t-92 -18.5t-92 18.5t-74.5 50t-50 74.5t-18.5 92z" />
<glyph unicode="&#x2026;" horiz-adv-x="1638" d="M145 100q0 113 113 113q53 0 81.5 -29.5t28.5 -83.5q0 -53 -27.5 -81.5t-82.5 -28.5q-113 -1 -113 110zM706 100q0 113 113 113q53 0 81.5 -29.5t28.5 -83.5q0 -53 -27.5 -81.5t-82.5 -28.5q-113 -1 -113 110zM1268 100q0 113 113 113q53 0 81.5 -29.5t28.5 -83.5 q0 -53 -27.5 -81.5t-82.5 -28.5q-113 -1 -113 110z" />
<glyph unicode="&#x202f;" horiz-adv-x="296" />
<glyph unicode="&#x2039;" horiz-adv-x="585" d="M143 342v109l295 290l4 -59l-129 -236l-98 -51l98 -51l129 -235l-4 -58z" />
<glyph unicode="&#x203a;" horiz-adv-x="585" d="M143 109l129 235l99 51l-99 51l-129 236l7 59l292 -290v-109l-292 -291z" />
<glyph unicode="&#x205f;" horiz-adv-x="370" />
<glyph unicode="&#x20ac;" d="M49 502l31 92h131q53 184 158.5 266t267.5 82q76 0 141.5 -25.5t108.5 -66.5v-4l-94 -103h-7q-47 47 -102 70t-109 23q-31 0 -61.5 -4.5t-56.5 -14.5q-35 -33 -65 -95.5t-38 -127.5h414l-31 -92h-395q-2 -16 -3 -44t1 -50h367l-25 -95h-340q10 -109 76.5 -167t165.5 -58 q76 0 138 29.5t105 75.5h2l45 -60v-2q-57 -66 -132.5 -105.5t-172.5 -39.5q-160 0 -255 86t-124 241h-118l22 95h88q0 23 1 50t3 44h-137z" />
<glyph unicode="&#x2122;" horiz-adv-x="1169" d="M45 1034h471l-18 -131h-52l-10 76l-102 14v-344l84 -12l-6 -39h-252l6 39q23 4 42 11t19 26v319l-100 -14l-10 -76h-54zM504 598l8 39q35 4 46 16.5t15 36.5l27 293l-63 12l6 39h143l133 -295l133 295h140l-7 -39q-25 -4 -40 -14t-11 -31l37 -301l68 -12l-6 -39h-224 l6 39q23 4 37.5 15.5t10.5 39.5l-19 139q-4 25 -4 40v30h-4q-4 -16 -8 -31.5t-15 -38.5l-96 -215h-49l-96 207q-20 45 -25 78h-4q0 -10 -1 -29.5t-3 -37.5l-16 -185l57 -12l-6 -39h-170z" />
<glyph unicode="&#xe000;" horiz-adv-x="785" d="M0 785h785v-785h-785v785z" />
<glyph unicode="&#xfb01;" horiz-adv-x="1087" d="M624 709l15 59l276 35v-713l131 -29l-12 -61h-375l14 61q47 10 67.5 29t20.5 60v528zM735 1059q0 94 98 94q92 0 92 -94q0 -96 -92 -96q-53 0 -75.5 24.5t-22.5 71.5zM25 727l16 57h154q2 109 30.5 181.5t84 115.5t140.5 61.5t201 18.5h17l-45 -149q-37 10 -82 16t-82 6 q-53 0 -86 -8q-12 -33 -18.5 -79t-6.5 -120v-43h207l-20 -98h-187v-596l144 -29l-13 -61h-389l16 61q47 10 68 29t21 60v536z" />
<glyph unicode="&#xfb02;" horiz-adv-x="1056" d="M604 1067l12 61l276 33v-1071l134 -29l-13 -61h-377l17 61q47 10 66.5 29t19.5 60v888zM25 727l16 57h154q2 109 30.5 181.5t84 115.5t140.5 61.5t201 18.5h17l-45 -149q-37 10 -82 16t-82 6q-53 0 -86 -8q-12 -33 -18.5 -79t-6.5 -120v-43h207l-20 -98h-187v-596 l144 -29l-13 -61h-389l16 61q47 10 68 29t21 60v536z" />
<glyph unicode="&#xfb03;" horiz-adv-x="1660" d="M1198 709l15 59l276 35v-713l131 -29l-12 -61h-375l14 61q47 10 67.5 29t20.5 60v528zM1309 1059q0 94 98 94q92 0 92 -94q0 -96 -92 -96q-53 0 -75.5 24.5t-22.5 71.5zM598 727l16 57h154q2 109 30.5 181.5t84 115.5t140.5 61.5t201 18.5h17l-45 -149q-37 10 -82 16 t-82 6q-53 0 -86 -8q-12 -33 -18.5 -79t-6.5 -120v-43h207l-20 -98h-187v-596l144 -29l-13 -61h-389l16 61q47 10 68 29t21 60v536zM25 727l16 57h154q2 109 30.5 181.5t84 115.5t140.5 61.5t201 18.5h17l-45 -149q-37 10 -82 16t-82 6q-53 0 -86 -8q-12 -33 -18.5 -79 t-6.5 -120v-43h207l-20 -98h-187v-596l144 -29l-13 -61h-389l16 61q47 10 68 29t21 60v536z" />
<glyph unicode="&#xfb04;" horiz-adv-x="1630" d="M1178 1067l12 61l276 33v-1071l134 -29l-13 -61h-377l17 61q47 10 66.5 29t19.5 60v888zM598 727l16 57h154q2 109 30.5 181.5t84 115.5t140.5 61.5t201 18.5h17l-45 -149q-37 10 -82 16t-82 6q-53 0 -86 -8q-12 -33 -18.5 -79t-6.5 -120v-43h207l-20 -98h-187v-596 l144 -29l-13 -61h-389l16 61q47 10 68 29t21 60v536zM25 727l16 57h154q2 109 30.5 181.5t84 115.5t140.5 61.5t201 18.5h17l-45 -149q-37 10 -82 16t-82 6q-53 0 -86 -8q-12 -33 -18.5 -79t-6.5 -120v-43h207l-20 -98h-187v-596l144 -29l-13 -61h-389l16 61q47 10 68 29 t21 60v536z" />
</font>
</defs>
</svg>
