<?xml version="1.0" standalone="no"?>
<!DOCTYPE svg PUBLIC "-//W3C//DTD SVG 1.1//EN" "http://www.w3.org/Graphics/SVG/1.1/DTD/svg11.dtd" >
<svg xmlns="http://www.w3.org/2000/svg">
<metadata>
This is a custom SVG webfont generated by Font Squirrel.
Copyright   : spiderman font based partiialy on 1979 font
</metadata>
<defs>
<font id="HomoarakhnRegular" horiz-adv-x="2000" >
<font-face units-per-em="2048" ascent="1638" descent="-410" />
<missing-glyph horiz-adv-x="1024" />
<glyph unicode=" "  horiz-adv-x="1024" />
<glyph unicode="&#x09;" horiz-adv-x="1024" />
<glyph unicode="&#xa0;" horiz-adv-x="1024" />
<glyph unicode="!" horiz-adv-x="610" d="M272 319l29 136h201l-29 -136h-201zM317 535l179 829h200l-178 -829h-201z" />
<glyph unicode="&#x22;" horiz-adv-x="1116" d="M401 1024q100 51 150 84q86 59 113 121l28 135h201l-29 -135q-78 -94 -211 -150q-123 -53 -252 -55zM731 1024q100 51 150 84q86 59 112 121l29 135h201l-29 -135q-78 -94 -211 -150q-123 -53 -252 -55z" />
<glyph unicode="$" horiz-adv-x="1781" d="M252 397l43 201q315 -76 604 -88l49 233h-622l114 541q330 70 639 78l31 139h201l-31 -139q301 -10 606 -78l-43 -201q-315 74 -604 86l-47 -225h623l-117 -547q-330 -70 -639 -78l-35 -165h-201l35 165q-301 10 -606 78zM569 944h422l47 225q-197 -6 -430 -45zM1100 510 q199 6 432 47l39 186h-422z" />
<glyph unicode="(" horiz-adv-x="2048" d="M987 100q-4 711 307 1446h201q6 -6 2 -6l-82 -194q-98 -231 -160 -512q-63 -291 -65 -533l-2 -201h-201z" />
<glyph unicode=")" horiz-adv-x="2048" d="M987 100l84 195q94 219 157.5 513t65.5 531l2 201h201v-18q0 -702 -307 -1428h-201q-4 4 -4 5t2 1z" />
<glyph unicode="," horiz-adv-x="782" d="M207 115q109 57 147 84q88 59 113 120l29 136h200l-28 -136q-78 -94 -209 -149q-123 -53 -252 -55z" />
<glyph unicode="-" horiz-adv-x="2048" d="M758 799l71 155h1076l-72 -155h-1075z" />
<glyph unicode="." horiz-adv-x="610" d="M272 319l29 136h201l-29 -136h-201z" />
<glyph unicode="/" horiz-adv-x="1589" d="M154 389l45 209l1595 705l-45 -216l-98 -40l-1405 -621v2z" />
<glyph unicode="0" d="M362 399l189 885q383 80 735 80t711 -80l-189 -885q-381 -80 -733.5 -80t-712.5 80zM598 561q274 -49 526 -49q231 0 518 47l119 563q-274 49 -524 49q-233 0 -518 -47z" />
<glyph unicode="1" d="M829 1126l41 191q338 37 832 47l-223 -1045h-201l180 844q-324 -6 -629 -37zM1659 1163z" />
<glyph unicode="2" d="M362 397l117 547h1245l39 180q-266 47 -497 47q-338 0 -758 -88l43 201q395 80 747.5 80t698.5 -80l-115 -541h-1245l-39 -186q264 -49 498 -49q338 0 755 90l-43 -201q-393 -80 -745.5 -80t-700.5 80z" />
<glyph unicode="3" d="M326 367l43 202q383 -53 790 -53q279 0 516 27l45 205h-993l41 200h993l43 203q-223 27 -501 27q-408 0 -824 -54l43 203q307 37 754 37q467 0 766 -35l-27 -121h2l-147 -700h-2l-31 -141q-324 -47 -784 -48q-440 1 -727 48z" />
<glyph unicode="4" d="M301 795l123 569h201l-86 -397q252 -18 616 -19h422l90 416h201l-90 -416h293l-41 -200h-293l-92 -429h-201l92 429h-422q-397 0 -813 47z" />
<glyph unicode="5" d="M362 397l44 201q381 -90 718 -90q231 0 518 49l39 186h-1245l115 541q383 80 735 80t711 -80l-43 -201q-379 88 -717 88q-233 0 -518 -47l-39 -180h1245l-117 -547q-381 -80 -733.5 -80t-712.5 80z" />
<glyph unicode="6" d="M362 397l189 887q383 80 735 80t711 -80l-43 -201q-379 88 -717 88q-233 0 -518 -47l-39 -180h1245l-117 -547q-381 -80 -733.5 -80t-712.5 80zM598 557q274 -49 526 -49q231 0 518 49l39 186h-1044z" />
<glyph unicode="7" d="M383 489l1311 656q-227 33 -457 33q-315 0 -727 -91l43 201q381 80 733 80t713 -80l-43 -201l-1516 -770z" />
<glyph unicode="8" horiz-adv-x="1980" d="M289 397l88 412l8 -2v4l248 53l-236 45l97 451q315 35 782 35q446 0 737 -37l-94 -449l-225 -37l207 -41l-93 -434q-307 -47 -747 -47q-461 0 -764 47h-8zM528 573q231 -27 512 -26q303 0 607 28l22 113q-279 74 -555 90l-2 -4h-2q-217 0 -561 -102zM635 1079 q238 -78 520 -100q313 14 592 76l27 121q-313 33 -607 32q-276 0 -510 -26z" />
<glyph unicode="9" d="M362 397l44 201q381 -90 718 -90q231 0 518 49l39 186h-1245l115 541q383 80 735 80t711 -80l-189 -887q-381 -80 -733.5 -80t-712.5 80zM680 944h1044l37 178q-274 49 -524 49q-233 0 -518 -47z" />
<glyph unicode=":" horiz-adv-x="610" d="M272 319l29 136h201l-29 -136h-201zM389 866l29 135h200l-28 -135h-201z" />
<glyph unicode=";" horiz-adv-x="780" d="M205 115q109 57 147 84q88 59 113 120l29 136h200l-28 -136q-78 -94 -209 -149q-123 -53 -252 -55zM582 866l28 135h201l-29 -135h-200z" />
<glyph unicode="?" horiz-adv-x="1667" d="M340 1083l43 201q383 80 735 80t711 -80l-43 -201h-2l-62 -288q-266 -29 -628 -41l-45 -217h-201l86 411h59q292 0 566 19l32 155q-272 49 -522 49q-315 0 -729 -88zM801 319l28 136h201l-29 -136h-200z" />
<glyph unicode="@" horiz-adv-x="2269" d="M135 82q428 -72 870.5 -72t897.5 72l26 127q-487 -70 -921 -70q-381 0 -721 54l237 1130q395 66 774 66q391 0 766 -70l-180 -852l-110 31l145 682q-311 78 -627 77q-317 0 -671 -77l-41 -191q377 84 680 84q211 0 446 -45l-37 -170h-1118l-111 -520q311 -76 627 -76 q317 0 672 76l112 -33l113 -6l244 1137q-420 82 -865 82q-446 0 -919 -82zM653 489l37 177h938l-37 -177q-266 -47 -491 -47q-209 0 -447 47z" />
<glyph unicode="A" horiz-adv-x="2344" d="M516 319l205 965q383 80 735 80t711 -80l-205 -965h-201l90 424h-1044l-90 -424h-201zM850 948h1044l37 174q-272 49 -524 49q-231 0 -518 -47z" />
<glyph unicode="B" horiz-adv-x="2228" d="M516 381l37 182l113 -4l125 584h-117l37 176q408 45 895 45q446 0 737 -37l-94 -448l-226 -37l207 -41l-92 -434q-307 -47 -747 -48q-480 1 -875 62zM862 543q231 -27 508 -27q305 0 606 29l23 112q-336 90 -557 91h-535zM948 948h535q248 0 594 76l26 121 q-311 33 -606 33q-272 0 -504 -25z" />
<glyph unicode="C" horiz-adv-x="1832" d="M385 399l188 885q383 80 735.5 80t710.5 -80l-43 -201q-379 88 -716 88q-233 0 -519 -47l-120 -563q274 -49 526 -49q315 0 727 88l-43 -201q-381 -80 -733.5 -80t-712.5 80z" />
<glyph unicode="D" horiz-adv-x="1843" d="M248 330l39 178l123 6l143 668l-133 4l37 174l135 4h717q352 0 710 -80l-188 -885q-381 -80 -733 -80h-729zM610 514l537 -2q233 0 518 47l119 563q-272 49 -524 49h1l-331 9l-176 4z" />
<glyph unicode="E" horiz-adv-x="2207" d="M614 367l31 141h-2l148 700h2l26 121q315 35 783 35q446 0 737 -37l-43 -203q-395 53 -803 54q-279 0 -514 -27l-43 -203h993l-41 -200h-993l-45 -205q231 -27 508 -27q408 0 811 53l-43 -202q-307 -47 -748 -48q-461 1 -764 48z" />
<glyph unicode="F" horiz-adv-x="2129" d="M459 319l188 889h2l27 121q315 35 782 35q446 0 737 -37l-43 -203q-395 53 -802 54q-279 0 -514 -27l-43 -203h993l-41 -200h-993l-93 -429h-200z" />
<glyph unicode="G" horiz-adv-x="2072" d="M252 399l188 885q383 80 735.5 80t710.5 -80l-43 -201q-379 88 -717 88q-233 0 -518 -47l-121 -563q274 -49 527 -49q233 0 518 47l41 189h-537l41 200l740 -2l-119 -547q-381 -80 -733.5 -80t-712.5 80z" />
<glyph unicode="H" horiz-adv-x="2369" d="M516 319l223 1045h205l-90 -416h1040l91 416h200l-223 -1045h-201l92 429h-1040l-92 -429h-205z" />
<glyph unicode="I" horiz-adv-x="610" d="M272 319l224 1045h200l-223 -1045h-201z" />
<glyph unicode="J" horiz-adv-x="1718" d="M219 395l70 326h200l-34 -166q266 -47 497 -47q252 0 547 49l172 807h201l-207 -969q-393 -80 -745.5 -80t-700.5 80z" />
<glyph unicode="K" horiz-adv-x="2254" d="M629 319l223 1045h201l-90 -416h534q248 0 594 76l74 340h200l-102 -485l-227 -37l209 -41l-103 -482h-200l71 338q-336 90 -557 91h-534l-93 -429h-200z" />
<glyph unicode="L" horiz-adv-x="1718" d="M219 395l207 969h201l-172 -807q276 -49 526 -49q233 0 518 47l35 166h201l-70 -326q-381 -80 -733.5 -80t-712.5 80z" />
<glyph unicode="M" horiz-adv-x="1824" d="M369 315l204 969q330 70 639 78l21 94h201l-21 -94q301 -10 606 -78l-204 -969h-201l170 807q-211 39 -412 47l-160 -759h-200l159 759q-197 -6 -430 -45l-172 -809h-200z" />
<glyph unicode="N" horiz-adv-x="1847" d="M369 315l204 969q107 23 211 39q4 0 4 -4q0 -8 -5 -25.5t-5 -25.5q0 -4 2 -4q14 31 35 61q276 39 494 39q352 0 710 -80l-204 -969h-201l170 807q-272 49 -524 49q-233 0 -519 -47l-172 -809h-200z" />
<glyph unicode="O" horiz-adv-x="1832" d="M385 399l188 885q383 80 735.5 80t710.5 -80l-188 -885q-381 -80 -733.5 -80t-712.5 80zM621 561q274 -49 526 -49q233 0 518 47l119 563q-272 49 -524 49q-233 0 -519 -47z" />
<glyph unicode="P" horiz-adv-x="1988" d="M369 319l168 781l-148 -19l37 170l147 33q360 80 736 80q352 0 710 -80l-43 -201h-2l-61 -288q-432 -47 -830 -47h-421l-93 -429h-200zM702 948h422q365 0 625 19l33 155q-272 49 -522 49q-233 0 -519 -47z" />
<glyph unicode="Q" horiz-adv-x="1781" d="M252 399l188 885q383 80 735.5 80t710.5 -80l-188 -885q-328 -70 -635 -77l-59 -297h-203l61 297q-303 9 -610 77zM487 561q215 -39 416 -47l51 236l201 -2l-51 -234q197 6 428 45l119 563q-272 49 -525 49q-233 0 -518 -47z" />
<glyph unicode="R" horiz-adv-x="1847" d="M369 319l163 773l-137 -23l39 182l139 33q340 80 736 80q352 0 710 -80l-43 -201h-2l-49 -231l-231 -43q137 -27 204 -84l-86 -406h-200l67 314q-227 106 -544 110l-473 7l-93 -431h-200zM705 950l569 -2q176 0 479 39l29 135q-272 49 -522 49q-233 0 -519 -47z" />
<glyph unicode="S" horiz-adv-x="1835" d="M385 397l43 201q381 -90 719 -90q233 0 518 49l39 186h-1245l114 541q383 80 735.5 80t710.5 -80l-43 -201q-379 88 -716 88q-233 0 -519 -47l-39 -180h1246l-117 -547q-381 -80 -733.5 -80t-712.5 80z" />
<glyph unicode="T" horiz-adv-x="1710" d="M365 1087l43 201q381 80 733 80t712 -80l-43 -201q-317 74 -604 87l-182 -855h-201l183 857q-276 -11 -641 -89z" />
<glyph unicode="U" horiz-adv-x="1843" d="M385 395l207 969h201l-172 -807q274 -49 526 -49q233 0 518 47l172 809h201l-207 -969q-381 -80 -733.5 -80t-712.5 80z" />
<glyph unicode="V" horiz-adv-x="2011" d="M385 1223l168 139l598 -760l922 760l110 -139l-1091 -904z" />
<glyph unicode="W" horiz-adv-x="2048" d="M385 393l205 969h201l-170 -807q274 -49 526 -49q231 0 516 47l172 809h201l-205 -969q-381 -80 -733.5 -80t-712.5 80zM1004 375l190 893h201l-189 -887z" />
<glyph unicode="X" horiz-adv-x="1837" d="M326 412l659 389l-504 397l150 166l559 -440l741 436l78 -166l-668 -391l492 -387l-145 -166l-551 432l-736 -430z" />
<glyph unicode="Y" horiz-adv-x="1742" d="M328 838l112 526h201l-78 -367q225 -41 438 -47l39 191h201l-39 -191q186 10 406 47l78 367h200l-112 -526q-317 -66 -613 -78l-94 -441h-201l95 439q-316 8 -633 80z" />
<glyph unicode="Z" horiz-adv-x="1837" d="M385 391l41 201h4l-2 6l1241 549q-213 31 -409 31q-315 0 -728 -91l43 201q381 80 733.5 80t712.5 -80l-43 -201l-94 -38l-1163 -514q219 -33 424 -33q315 0 727 90l-41 -201q-383 -80 -735.5 -80t-710.5 80z" />
<glyph unicode="[" horiz-adv-x="923" />
<glyph unicode="\" horiz-adv-x="1589" d="M303 1087l45 216l131 -70l1166 -635l-46 -209l-73 39l-2 -2l-1137 621l-4 -3z" />
<glyph unicode="a" horiz-adv-x="2344" d="M311 748l41 200h297l72 336q383 80 735 80t711 -80l-72 -336h297l-41 -200h-297l-92 -429h-201l90 424h-1044l-90 -424h-201l92 429h-297zM850 948h1044l37 174q-272 49 -524 49q-231 0 -518 -47z" />
<glyph unicode="b" horiz-adv-x="2228" d="M324 748l41 200h383l38 176l-8 -2l45 207q315 35 783 35q446 0 737 -37l-94 -448l-226 -37l207 -41l-92 -434q-307 -47 -747 -48q-461 0 -764 48l30 141h-2l52 240h-383zM862 543q231 -27 508 -27q305 0 606 29l23 112q-336 90 -557 91h-535zM948 948h535q248 0 594 76 l26 121q-311 33 -606 33q-272 0 -504 -25z" />
<glyph unicode="c" horiz-adv-x="1832" d="M385 399l188 885q383 80 735.5 80t710.5 -80l-43 -201q-379 88 -716 88q-233 0 -519 -47l-120 -563q274 -49 526 -49q315 0 727 88l-43 -201q-381 -80 -733.5 -80t-712.5 80z" />
<glyph unicode="d" horiz-adv-x="1843" d="M369 319l223 1045h717q352 0 710 -80l-188 -885q-381 -80 -733 -80h-729zM410 514l737 -2q233 0 518 47l119 563q-272 49 -524 49q-51 0 -355 9l-151 4l-144 -670h-200z" />
<glyph unicode="e" horiz-adv-x="2207" d="M311 748l41 200h383l56 260h2l26 121q315 35 783 35q446 0 737 -37l-43 -203q-395 53 -803 54q-279 0 -514 -27l-43 -203h993l-41 -200h-993l-45 -205q231 -27 508 -27q408 0 811 53l-43 -202q-307 -47 -748 -48q-461 0 -764 48l31 141h-2l51 240h-383z" />
<glyph unicode="f" horiz-adv-x="2129" d="M168 748l41 200h383l55 260h2l27 121q315 35 782 35q446 0 737 -37l-43 -203q-395 53 -802 54q-279 0 -514 -27l-43 -203h993l-41 -200h-993l-93 -429h-200l92 429h-383z" />
<glyph unicode="g" horiz-adv-x="2072" d="M252 399l188 885q383 80 735.5 80t710.5 -80l-43 -201q-379 88 -717 88q-233 0 -518 -47l-121 -563q274 -49 527 -49q233 0 518 47l41 189h-537l41 200h1028l-41 -200h-290l-76 -349q-381 -80 -733.5 -80t-712.5 80z" />
<glyph unicode="h" horiz-adv-x="2369" d="M324 750l41 198h284l90 416h205l-90 -416h1040l91 416h200l-90 -416h309l-41 -198h-82v-2h-227l-92 -429h-201l92 429h-1040l-92 -429h-205l92 429h-202v2h-82z" />
<glyph unicode="i" horiz-adv-x="610" d="M272 319l224 1045h200l-223 -1045h-201z" />
<glyph unicode="j" horiz-adv-x="1718" d="M219 395l70 326h200l-34 -166q266 -47 497 -47q252 0 547 49l172 807h201l-207 -969q-393 -80 -745.5 -80t-700.5 80z" />
<glyph unicode="k" horiz-adv-x="2254" d="M338 748l41 200h383l90 416h201l-90 -416h534q248 0 594 76l74 340h200l-102 -485l-227 -37l209 -41l-103 -482h-200l71 338q-336 90 -557 91h-534l-93 -429h-200l92 429h-383z" />
<glyph unicode="l" horiz-adv-x="1718" d="M219 395l207 969h201l-172 -807q276 -49 526 -49q233 0 518 47l35 166h201l-70 -326q-381 -80 -733.5 -80t-712.5 80z" />
<glyph unicode="m" horiz-adv-x="1824" d="M369 315l204 969q330 70 639 78l21 94h201l-21 -94q301 -10 606 -78l-204 -969h-201l170 807q-211 39 -412 47l-160 -759h-200l159 759q-197 -6 -430 -45l-172 -809h-200z" />
<glyph unicode="n" horiz-adv-x="1847" d="M369 315l204 969q383 80 735.5 80t710.5 -80l-204 -969h-201l170 807q-272 49 -524 49q-233 0 -519 -47l-172 -809h-200z" />
<glyph unicode="o" horiz-adv-x="1832" d="M385 399l188 885q383 80 735.5 80t710.5 -80l-188 -885q-381 -80 -733.5 -80t-712.5 80zM621 561q274 -49 526 -49q233 0 518 47l119 563q-272 49 -524 49q-233 0 -519 -47z" />
<glyph unicode="p" horiz-adv-x="1988" d="M168 748l41 200h293l71 336q383 80 735.5 80t710.5 -80l-43 -201h-2l-61 -288q-432 -47 -830 -47h-421l-93 -429h-200l92 429h-293zM702 948h422q365 0 625 19l33 155q-272 49 -522 49q-233 0 -519 -47z" />
<glyph unicode="q" horiz-adv-x="1781" d="M252 399l188 885q383 80 735.5 80t710.5 -80l-188 -885q-328 -70 -635 -77l-59 -297h-203l61 297q-303 9 -610 77zM487 561q215 -39 416 -47l51 236l201 -2l-51 -234q197 6 428 45l119 563q-272 49 -525 49q-233 0 -518 -47z" />
<glyph unicode="r" horiz-adv-x="1847" d="M369 319l204 965q383 80 735.5 80t710.5 -80l-43 -201h-2l-55 -266l-150 -16q86 -39 129 -76l-86 -406h-200l67 314q-227 106 -544 110l-473 7l-93 -431h-200zM705 950l569 -2q176 0 479 39l29 135q-272 49 -522 49q-233 0 -519 -47z" />
<glyph unicode="s" horiz-adv-x="1835" d="M385 397l43 201q381 -90 719 -90q233 0 518 49l39 186h-1245l114 541q383 80 735.5 80t710.5 -80l-43 -201q-379 88 -716 88q-233 0 -519 -47l-39 -180h1246l-117 -547q-381 -80 -733.5 -80t-712.5 80z" />
<glyph unicode="t" horiz-adv-x="1710" d="M365 1087l43 201q381 80 733 80t712 -80l-43 -201q-317 74 -604 87l-182 -855h-201l183 855q-285 -11 -641 -87z" />
<glyph unicode="u" horiz-adv-x="1843" d="M385 395l207 969h201l-172 -807q274 -49 526 -49q233 0 518 47l172 809h201l-207 -969q-381 -80 -733.5 -80t-712.5 80z" />
<glyph unicode="v" horiz-adv-x="2011" d="M385 1223l168 139l598 -760l922 760l110 -139l-1091 -904z" />
<glyph unicode="w" horiz-adv-x="2048" d="M385 393l205 969h201l-170 -807q213 -39 411 -47l162 760h201l-162 -760q197 6 430 45l172 809h201l-205 -969q-381 -80 -733.5 -80t-712.5 80z" />
<glyph unicode="x" horiz-adv-x="1837" d="M326 412l659 389l-504 397l150 166l559 -440l741 436l78 -166l-668 -391l492 -387l-145 -166l-551 432l-736 -430z" />
<glyph unicode="y" horiz-adv-x="1742" d="M328 838l112 526h201l-78 -367q225 -41 438 -47l39 191h201l-39 -191q186 10 406 47l78 367h200l-112 -526q-317 -66 -613 -78l-94 -441h-201l95 439q-316 8 -633 80z" />
<glyph unicode="z" horiz-adv-x="1837" d="M385 391l41 201h4l-2 6l1241 549q-213 31 -409 31q-315 0 -728 -91l43 201q381 80 733.5 80t712.5 -80l-43 -201l-94 -38l-1163 -514q219 -33 424 -33q315 0 727 90l-41 -201q-383 -80 -735.5 -80t-710.5 80z" />
<glyph unicode="&#xaa;" horiz-adv-x="2344" d="M311 748l41 200h297l72 336q383 80 735 80t711 -80l-72 -336h297l-41 -200h-297l-92 -429h-201l90 424h-1044l-90 -424h-201l92 429h-297zM850 948h1044l37 174q-272 49 -524 49q-231 0 -518 -47z" />
<glyph unicode="&#xad;" horiz-adv-x="2048" d="M758 799l71 155h1076l-72 -155h-1075z" />
<glyph unicode="&#xb2;" d="M362 397l117 547h1245l39 180q-266 47 -497 47q-338 0 -758 -88l43 201q395 80 747.5 80t698.5 -80l-115 -541h-1245l-39 -186q264 -49 498 -49q338 0 755 90l-43 -201q-393 -80 -745.5 -80t-700.5 80z" />
<glyph unicode="&#xb3;" d="M326 367l43 202q383 -53 790 -53q279 0 516 27l45 205h-993l41 200h993l43 203q-223 27 -501 27q-408 0 -824 -54l43 203q307 37 754 37q467 0 766 -35l-27 -121h2l-147 -700h-2l-31 -141q-324 -47 -784 -48q-440 1 -727 48z" />
<glyph unicode="&#xb9;" d="M829 1126l41 191q338 37 832 47l-223 -1045h-201l180 844q-324 -6 -629 -37zM1659 1163z" />
<glyph unicode="&#xba;" horiz-adv-x="1832" d="M385 399l188 885q383 80 735.5 80t710.5 -80l-188 -885q-381 -80 -733.5 -80t-712.5 80zM621 561q274 -49 526 -49q233 0 518 47l119 563q-272 49 -524 49q-233 0 -519 -47z" />
<glyph unicode="&#x152;" horiz-adv-x="4040" d="M385 399l188 885q383 80 735.5 80t710.5 -80l-188 -885q-381 -80 -733.5 -80t-712.5 80zM621 561q274 -49 526 -49q233 0 518 47l119 563q-272 49 -524 49q-233 0 -519 -47zM2447 367l31 141h-2l147 700h3l26 121q315 35 782 35q446 0 738 -37l-43 -203q-395 53 -803 54 q-279 0 -514 -27l-43 -203h993l-41 -200h-993l-45 -205q231 -27 508 -27q408 0 811 53l-43 -202q-307 -47 -748 -48q-461 1 -764 48z" />
<glyph unicode="&#x153;" horiz-adv-x="4040" d="M385 399l188 885q383 80 735.5 80t710.5 -80l-188 -885q-381 -80 -733.5 -80t-712.5 80zM621 561q274 -49 526 -49q233 0 518 47l119 563q-272 49 -524 49q-233 0 -519 -47zM2144 748l41 200h383l55 260h3l26 121q315 35 782 35q446 0 738 -37l-43 -203q-395 53 -803 54 q-279 0 -514 -27l-43 -203h993l-41 -200h-993l-45 -205q231 -27 508 -27q408 0 811 53l-43 -202q-307 -47 -748 -48q-461 0 -764 48l31 141h-2l51 240h-383z" />
<glyph unicode="&#x2013;" horiz-adv-x="1024" d="M205 512v205h614v-205h-614z" />
<glyph unicode="&#x2014;" horiz-adv-x="2048" d="M205 512v205h1638v-205h-1638z" />
<glyph unicode="&#x201c;" horiz-adv-x="1116" d="M401 1024q100 51 150 84q86 59 113 121l28 135h201l-29 -135q-78 -94 -211 -150q-123 -53 -252 -55zM731 1024q100 51 150 84q86 59 112 121l29 135h201l-29 -135q-78 -94 -211 -150q-123 -53 -252 -55z" />
<glyph unicode="&#x201d;" horiz-adv-x="1116" d="M401 1024q100 51 150 84q86 59 113 121l28 135h201l-29 -135q-78 -94 -211 -150q-123 -53 -252 -55zM731 1024q100 51 150 84q86 59 112 121l29 135h201l-29 -135q-78 -94 -211 -150q-123 -53 -252 -55z" />
<glyph unicode="&#x2026;" horiz-adv-x="1830" d="M272 319l29 136h201l-29 -136h-201zM883 319l28 136h201l-29 -136h-200zM1493 319l29 136h200l-28 -136h-201z" />
<glyph unicode="&#x2122;" horiz-adv-x="3534" d="M365 1087l43 201q381 80 733 80t712 -80l-43 -201q-317 74 -604 87l-182 -855h-201l183 857q-276 -11 -641 -89zM2079 315l205 969q330 70 638 78l21 94h201l-21 -94q301 -10 606 -78l-204 -969h-201l170 807q-211 39 -412 47l-160 -759h-200l160 759q-197 -6 -431 -45 l-172 -809h-200z" />
<glyph unicode="&#xe000;" horiz-adv-x="1365" d="M0 1365h1365v-1365h-1365v1365z" />
<glyph unicode="&#xfb01;" horiz-adv-x="2740" d="M168 748l41 200h383l55 260h2l27 121q315 35 782 35q446 0 737 -37l-43 -203q-395 53 -802 54q-279 0 -514 -27l-43 -203h993l-41 -200h-993l-93 -429h-200l92 429h-383zM2402 319l224 1045h200l-223 -1045h-201z" />
<glyph unicode="&#xfb02;" horiz-adv-x="3848" d="M168 748l41 200h383l55 260h2l27 121q315 35 782 35q446 0 737 -37l-43 -203q-395 53 -802 54q-279 0 -514 -27l-43 -203h993l-41 -200h-993l-93 -429h-200l92 429h-383zM2349 395l207 969h201l-172 -807q276 -49 526 -49q233 0 518 47l35 166h201l-70 -326 q-381 -80 -733.5 -80t-712.5 80z" />
<glyph unicode="&#xfb03;" horiz-adv-x="4870" d="M168 748l41 200h383l55 260h2l27 121q315 35 782 35q446 0 737 -37l-43 -203q-395 53 -802 54q-279 0 -514 -27l-43 -203h993l-41 -200h-993l-93 -429h-200l92 429h-383zM2298 748l41 200h383l55 260h2l27 121q315 35 782 35q446 0 737 -37l-43 -203q-395 53 -802 54 q-279 0 -514 -27l-44 -203h994l-41 -200h-993l-93 -429h-200l92 429h-383zM4532 319l223 1045h201l-223 -1045h-201z" />
<glyph unicode="&#xfb04;" horiz-adv-x="5978" d="M168 748l41 200h383l55 260h2l27 121q315 35 782 35q446 0 737 -37l-43 -203q-395 53 -802 54q-279 0 -514 -27l-43 -203h993l-41 -200h-993l-93 -429h-200l92 429h-383zM2298 748l41 200h383l55 260h2l27 121q315 35 782 35q446 0 737 -37l-43 -203q-395 53 -802 54 q-279 0 -514 -27l-44 -203h994l-41 -200h-993l-93 -429h-200l92 429h-383zM4479 395l207 969h201l-173 -807q276 -49 527 -49q233 0 518 47l35 166h200l-69 -326q-381 -80 -733.5 -80t-712.5 80z" />
</font>
</defs>
</svg>
